<?xml version="1.0" standalone="no"?>
<!DOCTYPE svg PUBLIC "-//W3C//DTD SVG 1.1//EN" "http://www.w3.org/Graphics/SVG/1.1/DTD/svg11.dtd" >
<svg>
<metadata>
Created by FontForge 20110222 at Mon Mar  7 11:27:42 2011
 By www-data
Generated by Fontographer 4.1
</metadata>
<defs>
<font id="Bienetresocial" horiz-adv-x="600" >
  <font-face 
    font-family="Bienetresocial"
    font-weight="400"
    font-stretch="normal"
    units-per-em="1000"
    panose-1="2 0 5 3 0 0 0 0 0 0"
    ascent="800"
    descent="-200"
    x-height="538"
    cap-height="743"
    bbox="-78 -203 1244 967"
    underline-thickness="50"
    underline-position="-125"
    unicode-range="U+0020-2122"
  />
    <missing-glyph />
    <glyph glyph-name="space" unicode=" " horiz-adv-x="300" 
 />
    <glyph glyph-name="exclam" unicode="!" horiz-adv-x="339" 
d="M243 686c-38 -348 -49 -445 -49 -453h-46c0 3 -40 397 -46 453c0 43 30 76 70 76c48 0 71 -43 71 -76zM245 65c0 -42 -31 -74 -73 -74s-73 32 -73 74c0 41 32 74 73 74s73 -32 73 -74z" />
    <glyph glyph-name="quotedbl" unicode="&#x22;" horiz-adv-x="470" 
d="M408 712c0 -13 0 -15 -46 -263h-43c-42 241 -43 250 -43 263c0 40 26 66 66 66c43 0 66 -31 66 -66zM194 712c0 -13 0 -15 -46 -263h-43c-42 241 -43 250 -43 263c0 40 26 66 66 66c43 0 66 -31 66 -66z" />
    <glyph glyph-name="numbersign" unicode="#" horiz-adv-x="666" 
d="M567 240l-110 -28l1 -220h-54l1 208l-142 -35l1 -173h-54l1 160l-110 -27v85l110 27v153l-110 -27v85l110 27v202h53l-1 -190l142 36l-1 154h54l-1 -142l110 28v-85l-110 -28v-154l110 28v-84zM405 283v156l-142 -36v-155z" />
    <glyph glyph-name="dollar" unicode="$" 
d="M547 219c0 -128 -81 -212 -217 -223l2 -161h-55l1 160c-131 3 -225 78 -225 175c0 47 21 70 63 70c38 0 57 -20 57 -59c0 -19 -3 -24 -27 -61c11 -44 61 -73 132 -74v262c-130 9 -206 79 -206 191c0 115 84 201 206 209l-1 72h55l-2 -71c123 -2 203 -58 203 -140
c0 -46 -20 -69 -59 -69c-33 0 -56 21 -56 52c0 17 1 19 22 61c-9 28 -45 43 -110 46v-242c145 -13 217 -79 217 -198zM278 420v238c-81 -8 -123 -58 -123 -110c0 -80 33 -114 123 -128zM468 174c0 99 -83 126 -138 131v-258c88 9 138 55 138 127z" />
    <glyph glyph-name="percent" unicode="%" horiz-adv-x="874" 
d="M844 180c0 -110 -76 -194 -176 -194c-106 0 -172 77 -172 198c0 114 75 200 172 200c110 0 176 -76 176 -204zM727 699l-512 -734l-52 25l508 734zM396 511c0 -110 -76 -194 -176 -194c-106 0 -172 77 -172 198c0 114 75 200 172 200c110 0 176 -76 176 -204zM749 180
c0 104 -27 156 -80 156c-52 0 -78 -50 -78 -151s27 -152 80 -152c52 0 78 49 78 147zM301 511c0 104 -27 156 -80 156c-52 0 -78 -50 -78 -151s27 -152 80 -152c52 0 78 49 78 147z" />
    <glyph glyph-name="ampersand" unicode="&#x26;" horiz-adv-x="775" 
d="M775 428c-115 -13 -120 -21 -186 -146c-25 -47 -50 -86 -74 -116c77 -97 113 -114 241 -120v-46h-253l-63 87c-61 -69 -129 -103 -202 -103c-123 0 -202 72 -202 186c0 97 45 162 168 241c-56 87 -72 127 -72 179c0 96 79 169 184 169c92 0 149 -55 149 -144
c0 -69 -46 -134 -139 -193c37 -56 90 -129 160 -218c53 81 80 142 80 181c0 16 -32 31 -95 44v45h304v-46zM394 605c0 63 -28 100 -76 100c-43 0 -81 -32 -81 -92c0 -39 21 -89 64 -151c62 39 93 87 93 143zM410 123c-45 59 -105 143 -180 251c-54 -37 -81 -92 -81 -163
c0 -89 53 -147 134 -147c53 0 95 20 127 59z" />
    <glyph glyph-name="quotesingle" unicode="'" horiz-adv-x="256" 
d="M194 713c0 -3 0 -4 -46 -264h-43c-43 248 -43 250 -43 264c0 39 26 65 66 65c39 0 66 -27 66 -65z" />
    <glyph glyph-name="parenleft" unicode="(" horiz-adv-x="390" 
d="M351 -148l-51 -33c-179 135 -256 280 -256 481c0 199 78 343 255 477l52 -32v-8c-147 -111 -220 -257 -220 -437c0 -184 73 -331 220 -440v-8z" />
    <glyph glyph-name="parenright" unicode=")" horiz-adv-x="390" 
d="M346 300c0 -201 -77 -346 -256 -481l-51 33v8c147 109 220 256 220 440c0 180 -73 326 -220 437v8l52 32c177 -134 255 -278 255 -477z" />
    <glyph glyph-name="asterisk" unicode="*" horiz-adv-x="498" 
d="M453 616c0 -37 -1 -37 -183 -58c18 -20 47 -46 88 -78c25 -20 37 -37 37 -52c0 -21 -23 -45 -46 -45c-27 0 -32 10 -100 159c-67 -152 -71 -159 -99 -159c-23 0 -46 24 -46 45c0 15 12 32 37 52c41 32 70 58 88 78c-165 15 -183 23 -183 58c0 31 14 47 43 47
c10 0 29 -9 56 -27c37 -24 67 -41 91 -52c-2 13 -2 14 -30 152c0 28 15 42 44 42s43 -14 43 -42c-29 -143 -29 -143 -30 -152c24 11 55 28 92 52c27 18 45 27 55 27c29 0 43 -16 43 -47z" />
    <glyph glyph-name="plus" unicode="+" horiz-adv-x="666" 
d="M593 252h-223v-224h-74v224h-223v72h223v224h74v-224h223v-72z" />
    <glyph glyph-name="comma" unicode="," horiz-adv-x="300" 
d="M231 23c0 -77 -49 -146 -148 -208l-36 44c87 54 117 88 124 143c-78 0 -100 16 -100 71c0 34 29 66 68 66c61 0 92 -39 92 -116z" />
    <glyph glyph-name="hyphen" unicode="-" horiz-adv-x="340" 
d="M304 233h-268v95h268v-95z" />
    <glyph glyph-name="period" unicode="." horiz-adv-x="300" 
d="M226 67c0 -43 -33 -76 -75 -76s-75 34 -75 76s34 76 75 76s75 -34 75 -76z" />
    <glyph glyph-name="slash" unicode="/" horiz-adv-x="429" 
d="M389 760l-315 -941l-68 16l312 941z" />
    <glyph glyph-name="zero" unicode="0" 
d="M557 365c0 -224 -107 -380 -262 -380c-154 0 -252 139 -252 350c0 222 109 380 262 380c154 0 252 -136 252 -350zM434 351c0 202 -46 310 -132 310c-79 0 -136 -112 -136 -312c0 -207 44 -310 132 -310c82 0 136 122 136 312z" />
    <glyph glyph-name="one" unicode="1" 
d="M509 0h-370v46c112 5 133 12 133 63v480c-10 -3 -25 -5 -45 -5c-32 0 -74 22 -127 67l17 39c38 -17 75 -26 112 -26c47 0 93 16 138 48h31c-10 -60 -15 -116 -15 -169v-429c0 -48 30 -64 126 -68v-46z" />
    <glyph glyph-name="two" unicode="2" 
d="M562 198l-67 -198h-438v60c272 212 339 294 339 450c0 92 -45 150 -116 150c-63 0 -109 -32 -113 -80c25 -38 30 -46 30 -69c0 -47 -23 -71 -68 -71c-40 0 -67 34 -67 80c0 110 104 195 237 195c128 0 216 -84 216 -205c0 -146 -68 -232 -300 -380l-20 -32h229
c38 0 56 24 96 114z" />
    <glyph glyph-name="three" unicode="3" 
d="M541 221c0 -150 -118 -248 -299 -248c-117 0 -206 69 -206 162c0 57 33 95 83 95c40 0 60 -20 60 -59c0 -19 -8 -35 -24 -48s-24 -23 -24 -32c0 -41 41 -65 109 -65c102 0 181 89 181 204c0 75 -28 112 -85 112c-26 0 -55 -17 -88 -51l-31 52c147 102 184 143 184 217
c0 64 -40 103 -107 103c-41 0 -86 -28 -94 -55c16 -35 19 -45 19 -67c0 -46 -21 -69 -64 -69c-38 0 -64 31 -64 74c0 91 102 169 231 169c116 0 198 -65 198 -154c0 -83 -55 -139 -165 -166l-11 -10h31c99 0 166 -66 166 -164z" />
    <glyph glyph-name="four" unicode="4" 
d="M566 122h-35c-2 69 -24 103 -67 107h-59v-115c0 -48 22 -63 104 -68v-46h-316v46c87 3 106 13 106 62v121h-285v67l331 424h60v-430c95 0 120 14 123 100h38v-268zM311 586h-4l-229 -296h220v160c0 26 4 71 13 136z" />
    <glyph glyph-name="five" unicode="5" 
d="M558 700c-47 -93 -147 -139 -299 -139c-27 0 -47 2 -60 6l-35 -164c45 27 93 41 143 41c138 0 228 -88 228 -221c0 -142 -112 -239 -276 -239c-126 0 -215 58 -215 140c0 46 27 76 70 76c37 0 56 -17 56 -51c0 -15 -3 -29 -10 -41c-6 -12 -9 -23 -10 -33
c5 -18 44 -39 108 -39c105 0 160 103 160 220c0 84 -48 130 -133 130c-64 0 -121 -36 -137 -85l-57 13l85 396h46c27 -28 74 -42 143 -42c70 0 106 12 167 57z" />
    <glyph glyph-name="six" unicode="6" 
d="M561 630c0 -45 -20 -67 -60 -67c-38 0 -46 14 -71 95c-7 17 -28 26 -62 26c-93 0 -170 -108 -199 -279l3 -1c43 57 104 85 181 85c109 0 197 -106 197 -237c0 -160 -105 -267 -264 -267c-139 0 -235 120 -235 305c0 250 162 455 364 455c88 0 146 -46 146 -115zM429 250
c0 115 -45 173 -134 173c-79 0 -132 -78 -132 -194c0 -113 55 -191 128 -191c88 0 138 76 138 212z" />
    <glyph glyph-name="seven" unicode="7" 
d="M581 661c-156 -226 -223 -398 -236 -619c-4 -65 -28 -97 -72 -97s-61 22 -61 80c0 90 72 244 265 561h-255c-49 0 -87 -44 -115 -133l-43 6l68 293h37l9 -63h403v-28z" />
    <glyph glyph-name="eight" unicode="8" 
d="M549 209c0 -127 -119 -225 -271 -225c-135 0 -227 74 -227 182c0 78 56 152 138 183v2c-82 42 -113 87 -113 164c0 113 106 207 233 207c130 0 214 -67 214 -172c0 -66 -47 -131 -116 -159v-2c99 -39 142 -94 142 -180zM441 558c0 63 -50 108 -131 108
c-77 0 -135 -47 -135 -107c0 -79 62 -129 187 -150c53 23 79 73 79 149zM446 168c0 82 -70 136 -211 163c-54 -29 -92 -96 -92 -162c0 -79 57 -130 145 -130c94 0 158 52 158 129z" />
    <glyph glyph-name="nine" unicode="9" 
d="M549 412c0 -262 -162 -468 -364 -468c-95 0 -148 49 -148 116c0 45 20 68 60 68c24 0 41 -11 50 -32c26 -86 28 -91 83 -91c90 0 172 119 201 293l-2 1c-43 -59 -103 -88 -180 -88c-111 0 -199 105 -199 237c0 159 106 267 264 267c141 0 235 -122 235 -303zM437 471
c0 113 -54 191 -128 191c-88 0 -138 -77 -138 -213c0 -115 45 -172 134 -172c79 0 132 77 132 194z" />
    <glyph glyph-name="colon" unicode=":" horiz-adv-x="336" 
d="M242 446c0 -41 -33 -75 -74 -75s-74 34 -74 75s33 75 74 75s74 -34 74 -75zM241 65c0 -40 -33 -73 -73 -73c-41 0 -73 32 -73 73s32 74 73 74c40 0 73 -34 73 -74z" />
    <glyph glyph-name="semicolon" unicode=";" horiz-adv-x="336" 
d="M241 446c0 -41 -33 -75 -74 -75s-74 34 -74 75s33 75 74 75s74 -34 74 -75zM244 23c0 -73 -55 -151 -147 -208l-36 44c87 54 117 88 124 143c-76 0 -99 17 -99 71c0 28 21 66 67 66c61 0 91 -39 91 -116z" />
    <glyph glyph-name="less" unicode="&#x3c;" horiz-adv-x="666" 
d="M566 27l-473 223v76l473 223v-81l-391 -180l391 -180v-81z" />
    <glyph glyph-name="equal" unicode="=" horiz-adv-x="666" 
d="M569 349h-472v73h472v-73zM569 153h-472v73h472v-73z" />
    <glyph glyph-name="greater" unicode="&#x3e;" horiz-adv-x="666" 
d="M573 250l-473 -223v81l391 180l-391 180v81l473 -223v-76z" />
    <glyph glyph-name="question" unicode="?" horiz-adv-x="480" 
d="M443 548c0 -125 -91 -215 -220 -232v-108h-55v198c124 17 171 61 171 155c0 97 -39 145 -117 145c-27 0 -48 -7 -61 -20c7 -22 10 -41 10 -58c0 -32 -28 -56 -66 -56c-39 0 -58 22 -58 67c0 65 76 120 178 120c136 0 218 -80 218 -211zM269 65c0 -42 -31 -74 -73 -74
s-73 32 -73 74c0 41 32 73 73 73c42 0 73 -31 73 -73z" />
    <glyph glyph-name="at" unicode="@" horiz-adv-x="1065" 
d="M963 55c-81 -154 -230 -240 -412 -240c-254 0 -430 167 -430 409c0 275 214 490 493 490c205 0 339 -131 339 -332c0 -196 -102 -341 -245 -341c-69 0 -107 31 -115 92c-39 -61 -82 -91 -130 -91c-85 0 -136 60 -136 162c0 144 132 306 272 306c44 0 73 -19 86 -58l18 51
h100l-109 -307c-9 -25 -13 -44 -13 -59c0 -31 12 -47 37 -47c98 0 179 136 179 298c0 164 -115 273 -288 273c-218 0 -385 -185 -385 -432c0 -210 132 -353 327 -353c173 0 298 67 375 202zM662 386c-8 51 -32 76 -72 76c-78 0 -151 -131 -151 -265c0 -63 13 -94 38 -94
c45 0 86 33 121 98z" />
    <glyph glyph-name="A" unicode="A" horiz-adv-x="725" 
d="M752 0h-330v46c69 4 103 14 103 29c0 8 -2 16 -5 25l-57 151h-252c-32 -87 -46 -136 -46 -159c0 -27 38 -42 115 -46v-46h-304v46c68 3 110 31 134 92c53 137 132 342 236 616h50l239 -638c16 -43 56 -67 117 -70v-46zM442 306l-105 281l-105 -281h210z" />
    <glyph glyph-name="B" unicode="B" horiz-adv-x="692" 
d="M644 198c0 -114 -101 -198 -237 -198h-368v46c84 5 109 20 109 65v513c0 42 -37 68 -105 73v46h362c120 0 202 -60 202 -149c0 -102 -46 -151 -176 -190v-9c128 -13 213 -92 213 -197zM474 568c0 83 -43 125 -129 125c-29 0 -55 -1 -79 -3v-271h59c99 0 149 50 149 149z
M510 222c0 89 -61 144 -160 144h-84v-254c6 -41 38 -61 97 -61c95 0 147 61 147 171z" />
    <glyph glyph-name="C" unicode="C" horiz-adv-x="682" 
d="M671 189c-57 -136 -153 -204 -287 -204c-210 0 -345 148 -345 378c0 227 155 394 366 394c57 0 126 -24 157 -55l28 52h49l4 -278h-45c-48 151 -123 227 -224 227c-126 0 -204 -127 -204 -331c0 -181 102 -309 246 -309c103 0 156 39 209 153z" />
    <glyph glyph-name="D" unicode="D" horiz-adv-x="803" 
d="M764 367c0 -221 -161 -367 -405 -367h-320v46c83 0 109 15 109 62v518c0 44 -34 68 -105 71v46h334c231 0 387 -149 387 -376zM629 368c0 192 -115 323 -284 323h-79v-556c7 -55 43 -83 108 -83c162 0 255 115 255 316z" />
    <glyph glyph-name="E" unicode="E" horiz-adv-x="689" 
d="M667 225l-14 -225h-619v46c91 5 114 18 114 64v516c0 46 -41 67 -114 71v46h577v-186h-45c-13 55 -71 125 -111 131c-21 3 -50 5 -86 5h-103v-282h73c76 0 110 36 119 126h45v-309h-45c-1 28 -19 83 -32 99c-19 22 -48 33 -87 33h-73v-212c0 -84 14 -95 119 -95
c147 0 155 5 205 97c17 31 28 56 35 75h42z" />
    <glyph glyph-name="F" unicode="F" horiz-adv-x="633" 
d="M617 548h-44c-14 59 -73 134 -111 139c-25 3 -54 5 -87 5h-109v-290h74c81 0 116 37 125 125h44v-310h-44c-8 92 -44 133 -125 133h-74v-237c0 -44 30 -62 111 -67v-46h-344v46c88 5 115 11 115 61v519c0 44 -40 67 -115 71v46h584v-195z" />
    <glyph glyph-name="G" unicode="G" horiz-adv-x="774" 
d="M781 291c-80 -6 -104 -21 -104 -70v-240l-37 -6l-42 61c-83 -34 -163 -51 -242 -51c-182 0 -317 155 -317 369c0 231 167 403 390 403c58 0 133 -23 166 -54l30 51h46l6 -276h-45c-47 150 -127 225 -241 225c-128 0 -218 -130 -218 -340c0 -185 95 -322 224 -322
c107 0 170 45 170 121c0 110 0 121 -138 128v47h352v-46z" />
    <glyph glyph-name="H" unicode="H" horiz-adv-x="873" 
d="M830 0h-330v46c89 4 107 16 107 62v252h-341v-247c0 -45 28 -62 107 -67v-46h-330v46c87 4 105 16 105 62v519c0 43 -38 66 -105 70v46h330v-46c-84 -5 -107 -18 -107 -65v-216h341v211c0 38 -29 66 -107 70v46h330v-46c-80 -4 -105 -19 -105 -65v-519
c0 -45 31 -64 105 -67v-46z" />
    <glyph glyph-name="I" unicode="I" horiz-adv-x="418" 
d="M376 0h-334v46c83 5 108 12 108 61v520c0 42 -29 62 -108 70v46h334v-46c-91 -10 -108 -21 -108 -65v-520c0 -44 28 -61 108 -66v-46z" />
    <glyph glyph-name="J" unicode="J" horiz-adv-x="513" 
d="M493 697c-88 -5 -111 -18 -111 -65v-435c0 -112 -110 -216 -237 -216c-88 0 -146 46 -146 116c0 49 32 84 77 84c44 0 72 -29 72 -74c0 -30 -16 -54 -48 -71v-6c123 0 163 43 163 209v388c0 44 -37 67 -116 70v46h346v-46z" />
    <glyph glyph-name="K" unicode="K" horiz-adv-x="760" 
d="M796 0h-381v46c62 3 93 14 93 35c0 28 -102 156 -227 282h-15v-250c0 -43 32 -64 106 -67v-46h-329v46c86 4 105 16 105 62v518c0 42 -38 67 -105 71v46h330v-46c-82 -4 -107 -20 -107 -65v-249h5c132 112 243 237 243 287c0 15 -25 24 -75 27v46h304v-46
c-74 -4 -118 -17 -145 -47c-126 -147 -151 -176 -213 -232c63 -67 143 -163 240 -286c46 -59 92 -81 171 -86v-46z" />
    <glyph glyph-name="L" unicode="L" horiz-adv-x="649" 
d="M653 230l-16 -230h-596v46c86 5 107 17 107 65v514c0 44 -38 68 -107 72v46h333v-46c-82 -4 -108 -21 -108 -67v-482c0 -90 9 -98 119 -98c120 0 131 7 186 101c21 35 34 61 40 79h42z" />
    <glyph glyph-name="M" unicode="M" horiz-adv-x="999" 
d="M961 0h-350v46c86 5 125 15 125 66v561h-4c-7 -32 -20 -74 -40 -125l-211 -536h-37c-11 33 -28 83 -53 149l-150 400c-15 41 -27 81 -35 122h-3v-460c0 -145 17 -153 137 -177v-46h-327v46c110 14 131 21 131 172v364c0 80 -35 112 -126 115v46h272l208 -551l169 444
c13 34 23 70 30 107h263v-46c-87 -5 -109 -18 -109 -64v-521c0 -44 29 -62 110 -66v-46z" />
    <glyph glyph-name="N" unicode="N" horiz-adv-x="822" 
d="M833 697c-24 -1 -78 -16 -95 -26c-23 -15 -35 -62 -35 -142v-536h-53l-387 523c-25 33 -45 66 -60 101v-392c0 -142 13 -152 142 -179v-46h-332v46c23 2 86 20 97 28c23 16 34 64 34 145v354c0 78 -50 121 -140 124v46h229l411 -555v335c0 125 -13 142 -86 162
c-24 7 -42 11 -55 12v46h330v-46z" />
    <glyph glyph-name="O" unicode="O" horiz-adv-x="793" 
d="M753 376c0 -232 -147 -392 -360 -392c-203 0 -353 162 -353 380c0 233 146 395 357 395c206 0 356 -157 356 -383zM619 373c0 208 -82 331 -222 331c-186 0 -223 -203 -223 -335c0 -205 84 -330 223 -330s222 124 222 334z" />
    <glyph glyph-name="P" unicode="P" horiz-adv-x="641" 
d="M609 556c0 -140 -105 -230 -267 -230h-76v-216c0 -49 24 -61 116 -64v-46h-341v46c72 4 107 9 107 64v519c0 48 -24 63 -111 68v46h351c131 0 221 -76 221 -187zM475 531c0 103 -54 161 -151 161h-58v-313c96 0 143 9 180 58c19 26 29 57 29 94z" />
    <glyph glyph-name="Q" unicode="Q" horiz-adv-x="792" 
d="M872 -19c-63 -94 -135 -141 -218 -141c-95 0 -155 53 -182 158c-28 -9 -54 -14 -79 -14c-202 0 -353 162 -353 379c0 230 147 396 357 396c204 0 355 -162 355 -383c0 -143 -58 -251 -174 -325c17 -85 66 -128 146 -128c36 0 71 30 105 91zM618 372
c0 276 -133 332 -221 332c-193 0 -223 -214 -223 -336c0 -109 17 -188 50 -237c33 82 90 123 171 123c76 0 140 -55 166 -144c38 58 57 145 57 262zM466 44c-6 97 -43 145 -111 145c-41 0 -82 -40 -97 -94c35 -39 82 -59 139 -59c17 0 40 3 69 8z" />
    <glyph glyph-name="R" unicode="R" horiz-adv-x="744" 
d="M764 0h-233c-57 296 -124 348 -265 348v-239c0 -47 21 -59 112 -63v-46h-337v46c73 4 107 9 107 63v522c0 46 -26 62 -107 66v46h363c131 0 215 -67 215 -172c0 -108 -66 -156 -193 -189v-10c83 -19 140 -65 169 -140c8 -21 21 -60 40 -117c17 -50 46 -64 129 -69v-46z
M485 559c0 83 -53 133 -143 133h-76v-291h54c95 0 165 67 165 158z" />
    <glyph glyph-name="S" unicode="S" horiz-adv-x="583" 
d="M546 213c0 -132 -101 -226 -243 -226c-77 0 -136 17 -176 51l-33 -48h-42l-7 270h45c54 -145 129 -218 224 -218c83 0 125 42 125 125c0 58 -36 109 -95 132c-219 90 -278 124 -278 256c0 116 91 201 216 201c58 0 109 -16 153 -49l34 46h41l7 -262h-46
c-45 137 -98 209 -205 209c-57 0 -101 -43 -101 -98c0 -73 42 -116 157 -161c171 -66 224 -120 224 -228z" />
    <glyph glyph-name="T" unicode="T" horiz-adv-x="666" 
d="M658 538h-42c-14 56 -71 145 -113 152l-111 4v-577c0 -46 33 -66 118 -71v-46h-354v46c95 5 118 17 118 66v582c-131 0 -135 0 -180 -65c-23 -34 -38 -64 -44 -91h-42v205h650v-205z" />
    <glyph glyph-name="U" unicode="U" horiz-adv-x="817" 
d="M815 697c-108 -5 -130 -33 -130 -166v-315c0 -139 -114 -232 -272 -232c-166 0 -279 85 -279 211v431c0 44 -33 66 -105 71v46h331v-46c-83 -5 -107 -20 -107 -66v-389c0 -124 60 -186 179 -186c125 0 193 66 193 187v281c0 80 -12 128 -35 143c-28 18 -63 28 -106 30v46
h331v-46z" />
    <glyph glyph-name="V" unicode="V" horiz-adv-x="715" 
d="M743 697c-59 -3 -103 -34 -124 -87c-56 -140 -140 -346 -252 -618h-51l-219 635c-8 24 -37 66 -119 70v46h331v-46c-65 -3 -98 -13 -98 -28c0 -18 11 -54 170 -502c149 363 179 445 179 485c0 25 -39 40 -117 45v46h300v-46z" />
    <glyph glyph-name="W" unicode="W" horiz-adv-x="1036" 
d="M1061 697c-61 -3 -105 -34 -124 -87c-45 -133 -115 -339 -210 -618h-49c-69 241 -123 423 -160 546l-188 -546h-49l-187 635c-13 43 -51 67 -111 70v46h325v-46c-67 -4 -101 -13 -101 -27s29 -124 137 -481l143 420c0 60 -31 83 -120 88v46h327v-46
c-65 -3 -97 -12 -97 -27c0 -23 28 -119 142 -477c72 211 136 418 136 458c0 26 -36 41 -108 46v46h294v-46z" />
    <glyph glyph-name="X" unicode="X" horiz-adv-x="764" 
d="M775 0h-380v46c85 5 106 11 106 36c0 19 -46 96 -139 232c-102 -134 -153 -211 -153 -232c0 -25 19 -33 90 -36v-46h-302v46c103 6 105 7 330 318l-170 249c-44 65 -78 80 -157 84v46h383v-46c-84 -5 -106 -12 -106 -36c0 -19 41 -89 124 -210c90 119 135 189 135 210
c0 28 -34 33 -91 36v46h303v-46c-106 -6 -110 -12 -314 -294l187 -271c52 -76 78 -83 154 -86v-46z" />
    <glyph glyph-name="Y" unicode="Y" horiz-adv-x="655" 
d="M691 697c-96 -9 -120 -50 -276 -340c-24 -45 -36 -84 -36 -118v-123c0 -48 29 -60 117 -70v-46h-352v46c103 11 117 17 117 65v166c0 30 -29 97 -155 332c-32 59 -73 85 -138 88v46h341v-46c-77 -4 -102 -8 -102 -25c0 -14 50 -115 151 -303c103 170 154 266 154 289
c0 22 -33 35 -99 39v46h278v-46z" />
    <glyph glyph-name="Z" unicode="Z" horiz-adv-x="644" 
d="M638 241l-25 -241h-610v22l471 670h-161c-95 0 -116 -5 -169 -71c-27 -33 -46 -65 -58 -96h-41l23 218h557v-23l-470 -669h182c80 0 131 9 152 28c45 40 81 94 108 162h41z" />
    <glyph glyph-name="bracketleft" unicode="[" horiz-adv-x="424" 
d="M378 -152h-297v895h297v-56h-198v-783h198v-56z" />
    <glyph glyph-name="backslash" unicode="\" horiz-adv-x="429" 
d="M423 -165l-68 -16l-315 941l71 16z" />
    <glyph glyph-name="bracketright" unicode="]" horiz-adv-x="424" 
d="M343 -152h-297v56h198v783h-198v56h297v-895z" />
    <glyph glyph-name="asciicircum" unicode="^" horiz-adv-x="666" 
d="M594 302h-81l-180 351l-180 -351h-81l223 427h76z" />
    <glyph glyph-name="underscore" unicode="_" 
d="M605 -109h-610v57h610v-57z" />
    <glyph glyph-name="grave" unicode="`" horiz-adv-x="333" 
d="M300 626l-18 -30c-233 93 -243 98 -243 135c0 30 22 51 53 51c28 0 34 -5 208 -156z" />
    <glyph glyph-name="a" unicode="a" horiz-adv-x="552" 
d="M562 143c-4 -102 -45 -153 -124 -153c-49 0 -81 26 -98 77h-4c-42 -53 -97 -79 -165 -79c-79 0 -130 51 -130 131c0 77 37 130 111 159c47 16 109 40 187 73v48c0 63 -37 105 -93 105c-31 0 -55 -9 -72 -27c10 -55 10 -56 10 -63c0 -35 -22 -53 -66 -53
c-35 0 -53 22 -53 67c0 63 93 124 188 124c140 0 192 -44 192 -174c0 -45 0 -62 -6 -270c0 -31 15 -47 44 -47c22 0 34 27 35 82h44zM340 294c-136 -42 -187 -84 -187 -157c0 -53 24 -80 73 -80c46 0 70 14 109 62z" />
    <glyph glyph-name="b" unicode="b" horiz-adv-x="608" 
d="M571 269c0 -160 -111 -283 -248 -283c-54 0 -107 17 -160 50l-35 -63l-41 8c3 40 4 110 4 209v455c0 55 -24 73 -99 80v42l196 13l7 -9v-292l4 -1c43 49 91 74 145 74c134 0 227 -116 227 -283zM454 267c0 121 -46 215 -147 215c-41 0 -78 -19 -112 -58v-290
c22 -64 62 -96 119 -96c117 0 140 138 140 229z" />
    <glyph glyph-name="c" unicode="c" horiz-adv-x="497" 
d="M497 125c-48 -88 -134 -137 -215 -137c-153 0 -245 107 -245 284c0 162 106 280 252 280c106 0 179 -55 179 -135c0 -53 -22 -79 -65 -79s-65 20 -65 60c0 23 0 24 19 71c-4 21 -27 32 -70 32c-84 0 -135 -85 -135 -224c0 -133 62 -219 157 -219c65 0 105 28 148 102z
" />
    <glyph glyph-name="d" unicode="d" horiz-adv-x="626" 
d="M615 12l-189 -13l-8 7v53l-4 1c-43 -49 -91 -73 -143 -73c-144 0 -234 111 -234 289c0 154 111 276 250 276c49 0 92 -12 130 -35v122c0 61 -37 82 -125 87v42l222 12l7 -7v-652c0 -47 28 -63 94 -67v-42zM417 117v292c-19 62 -60 93 -121 93c-86 0 -142 -93 -142 -238
c0 -132 58 -211 154 -211c41 0 66 15 109 64z" />
    <glyph glyph-name="e" unicode="e" horiz-adv-x="522" 
d="M501 127c-42 -86 -123 -139 -215 -139c-157 0 -249 106 -249 285c0 160 101 279 238 279s214 -83 214 -230v-35h-339c0 -152 56 -228 167 -228c69 0 103 32 144 101zM377 339c0 109 -34 163 -103 163c-70 0 -120 -66 -124 -165z" />
    <glyph glyph-name="f" unicode="f" horiz-adv-x="357" 
d="M425 715c0 -38 -25 -66 -61 -66c-43 0 -65 21 -65 62c0 5 2 14 7 25c-63 0 -85 -66 -85 -212h132v-61h-133v-357c0 -42 24 -57 101 -62v-44h-283v44c69 4 78 19 78 57v362h-107v61h108c0 160 82 260 214 260c63 0 94 -23 94 -69z" />
    <glyph glyph-name="g" unicode="g" horiz-adv-x="562" 
d="M564 496c0 -43 -16 -65 -49 -65c-32 0 -48 23 -48 68c-33 0 -54 -3 -64 -10v-2c27 -31 41 -66 41 -107c0 -92 -84 -166 -188 -166h-63c-23 -9 -35 -22 -35 -39c0 -40 24 -43 114 -47c169 -7 178 -7 218 -45c30 -27 45 -63 45 -107c0 -109 -108 -179 -276 -179
c-159 0 -238 45 -238 134c0 71 51 108 153 113v7c-65 18 -97 48 -97 91c0 39 28 67 84 84v5c-73 29 -110 80 -110 155c0 97 84 167 198 167c56 0 150 -34 150 -35c33 23 70 35 110 35c29 0 55 -27 55 -57zM337 382c0 81 -30 121 -91 121c-57 0 -86 -39 -86 -117
c0 -76 34 -125 86 -125c56 0 91 47 91 121zM442 -44c0 69 -50 74 -223 74c-65 -13 -98 -45 -98 -98c0 -51 61 -83 157 -83c98 0 164 43 164 107z" />
    <glyph glyph-name="h" unicode="h" horiz-adv-x="640" 
d="M615 0h-264v44c65 4 81 15 81 56v260c0 71 -36 120 -88 120c-58 0 -110 -34 -135 -85v-288c0 -40 27 -59 82 -63v-44h-264v44c61 4 78 14 78 56v545c0 59 -25 76 -100 80v43l197 12l7 -7v-315h3c72 74 106 94 177 94c99 0 149 -59 149 -177v-270c0 -38 26 -59 77 -61v-44
z" />
    <glyph glyph-name="i" unicode="i" horiz-adv-x="327" 
d="M232 714c0 -41 -33 -75 -72 -75s-70 31 -70 70c0 40 31 73 70 73c40 0 72 -30 72 -68zM300 0h-261v44c60 4 78 14 78 57v313c0 46 -32 71 -94 74v43l192 13l7 -8v-428c0 -38 29 -62 78 -64v-44z" />
    <glyph glyph-name="j" unicode="j" horiz-adv-x="320" 
d="M241 714c0 -41 -33 -75 -72 -75s-70 31 -70 70c0 40 31 73 70 73c40 0 72 -30 72 -68zM234 69c0 -167 -84 -272 -218 -272c-56 0 -94 29 -94 71c0 35 23 64 58 64c45 0 68 -21 68 -62c0 -7 -1 -15 -3 -25c55 0 83 62 83 185v380c0 54 -34 76 -117 80v42l216 12l7 -8v-467
z" />
    <glyph glyph-name="k" unicode="k" horiz-adv-x="591" 
d="M600 0h-176c-37 127 -115 251 -175 251c-13 0 -26 -5 -40 -16v-129c0 -37 22 -55 81 -62v-44h-263v44c59 3 78 17 78 56v546c0 53 -29 75 -100 79v43l196 12l8 -8v-489c94 92 164 168 164 182c0 16 -20 26 -59 30v43h241v-41c-100 -30 -105 -34 -232 -165
c79 -38 98 -75 186 -245c12 -24 51 -44 91 -44v-43z" />
    <glyph glyph-name="l" unicode="l" horiz-adv-x="318" 
d="M290 0h-261v44c63 4 79 15 79 56v541c-6 56 -31 79 -104 83v43l200 13l8 -9v-664c0 -42 30 -61 78 -63v-44z" />
    <glyph glyph-name="m" unicode="m" horiz-adv-x="954" 
d="M934 0h-261v44c60 4 75 15 75 56v260c0 73 -32 118 -83 118c-56 0 -99 -28 -128 -84v-289c0 -38 26 -58 78 -61v-44h-258v44c58 4 74 15 74 56v260c0 71 -33 118 -83 118c-55 0 -97 -28 -128 -85v-287c0 -37 26 -60 79 -62v-44h-262v44c62 4 78 15 78 56v317
c-6 46 -33 68 -86 71v43l182 13l8 -8v-80h3c77 78 101 96 171 96c64 0 119 -39 141 -99c81 81 106 99 175 99c97 0 145 -61 145 -184v-263c0 -40 26 -59 80 -61v-44z" />
    <glyph glyph-name="n" unicode="n" horiz-adv-x="649" 
d="M626 0h-264v44c74 4 81 19 81 57v259c0 73 -34 119 -88 119c-58 0 -113 -35 -135 -85v-288c0 -37 29 -59 82 -62v-44h-265v44c69 4 78 19 78 57v314c0 46 -28 71 -83 74v43l181 12l7 -7v-79h2c73 72 102 94 176 94c97 0 151 -64 151 -178v-269c0 -39 30 -59 77 -61v-44z
" />
    <glyph glyph-name="o" unicode="o" horiz-adv-x="581" 
d="M545 276c0 -176 -102 -290 -259 -290c-145 0 -250 118 -250 282c0 169 104 285 257 285c151 0 252 -112 252 -277zM429 274c0 153 -46 229 -137 229s-140 -79 -140 -226c0 -154 50 -241 140 -241c55 0 137 39 137 238z" />
    <glyph glyph-name="p" unicode="p" horiz-adv-x="623" 
d="M586 270c0 -154 -107 -272 -247 -272c-50 0 -91 12 -124 37h-4v-127c0 -45 32 -63 109 -67v-44h-303v44c71 4 89 15 89 61v518c-7 52 -32 69 -89 72v39l185 13l8 -7v-60l4 -1c47 51 95 76 145 76c134 0 227 -116 227 -282zM469 272c0 133 -55 212 -147 212
c-39 0 -76 -21 -111 -62v-288c20 -57 60 -86 119 -86c87 0 139 84 139 224z" />
    <glyph glyph-name="q" unicode="q" horiz-adv-x="610" 
d="M616 -203h-294v44c78 3 95 13 95 60v162l-4 1c-40 -45 -88 -67 -143 -67c-138 0 -233 114 -233 283c0 152 111 272 252 272c63 0 83 -8 164 -55l40 70l37 -4c-5 -120 -8 -188 -8 -203v-449c0 -46 24 -63 94 -70v-44zM417 120v294c-21 58 -61 87 -122 87
c-85 0 -141 -93 -141 -233c0 -131 55 -205 153 -205c37 0 73 19 110 57z" />
    <glyph glyph-name="r" unicode="r" horiz-adv-x="448" 
d="M446 471c0 -47 -28 -81 -66 -81c-39 0 -59 18 -59 54c0 3 0 3 8 35c-43 0 -80 -28 -109 -84v-288c0 -43 28 -60 102 -63v-44h-285v44c60 4 78 15 78 57v313c0 46 -26 69 -84 75v43l181 12l8 -8v-79h2c46 61 95 92 146 92c43 0 78 -35 78 -78z" />
    <glyph glyph-name="s" unicode="s" horiz-adv-x="459" 
d="M419 156c0 -99 -81 -170 -192 -170c-46 0 -104 21 -128 47l-11 -37h-45l-5 192h47c18 -81 83 -150 147 -150c67 0 101 28 101 83c0 51 -34 81 -125 108c-105 32 -157 88 -157 167c0 90 73 156 172 156c46 0 83 -10 111 -31l9 32h43l8 -175h-47c-18 102 -86 121 -125 121
c-49 0 -85 -28 -85 -64c0 -55 24 -74 125 -109c103 -36 157 -80 157 -170z" />
    <glyph glyph-name="t" unicode="t" horiz-adv-x="385" 
d="M382 144c-9 -100 -59 -154 -143 -154c-91 0 -136 51 -136 154v327h-100v61h102v149h100v-149h149v-61h-148v-310c0 -70 20 -95 75 -95c31 0 50 26 55 78h46z" />
    <glyph glyph-name="u" unicode="u" horiz-adv-x="631" 
d="M607 12l-178 -13l-8 9v70h-3c-68 -71 -101 -90 -173 -90c-97 0 -145 61 -145 184v244c0 44 -29 69 -84 72v43l183 13l7 -8v-363c0 -73 32 -117 84 -117c53 0 97 29 130 86v279c0 50 -25 64 -100 67v43l198 13l7 -8v-416c0 -42 24 -62 82 -65v-43z" />
    <glyph glyph-name="v" unicode="v" horiz-adv-x="532" 
d="M547 496c-41 -8 -69 -29 -83 -64c-151 -379 -151 -380 -168 -439h-52l-172 446c-12 30 -39 48 -81 55v44h243v-46c-38 -3 -57 -11 -57 -25c3 -18 87 -244 119 -327c108 276 112 288 112 314c0 18 -33 37 -67 41v43h206v-42z" />
    <glyph glyph-name="w" unicode="w" horiz-adv-x="823" 
d="M840 495c-36 -4 -75 -34 -88 -67c-141 -384 -144 -392 -158 -435h-43l-128 361c-20 -53 -125 -345 -130 -361h-46c-36 96 -93 244 -170 445c-11 27 -47 52 -81 56v44h236v-47c-35 -1 -52 -9 -52 -23c0 -8 0 -8 116 -320c33 84 65 175 98 274c-7 27 -28 59 -45 66
c-3 1 -16 3 -38 6v44h226v-45c-33 -3 -50 -10 -50 -22c0 -15 48 -158 111 -326c25 66 100 286 100 311c0 20 -32 39 -64 39v43h206v-43z" />
    <glyph glyph-name="x" unicode="x" horiz-adv-x="526" 
d="M521 0h-238v43c34 3 51 10 51 19c0 15 -70 125 -93 160c-96 -140 -96 -140 -96 -151c0 -16 19 -26 56 -29v-42h-201v41c49 19 83 40 101 63c6 7 43 60 112 159c-32 48 -71 111 -118 186c-19 30 -47 45 -84 45v44h226v-44c-28 0 -42 -4 -42 -11c0 -11 17 -40 86 -150
c57 81 78 117 78 135c0 11 -14 19 -46 27v43h199v-42c-49 -13 -84 -33 -104 -58c-15 -24 -49 -72 -100 -145c134 -214 138 -219 158 -233c11 -7 30 -12 55 -17v-43z" />
    <glyph glyph-name="y" unicode="y" horiz-adv-x="528" 
d="M546 496c-31 -7 -73 -37 -83 -64c-207 -545 -262 -635 -376 -635c-51 0 -83 30 -83 77c0 35 32 68 66 68c47 0 59 -20 59 -80c33 7 81 71 112 150c-31 80 -88 222 -170 427c-13 31 -40 49 -81 54v45h240v-47c-36 -1 -54 -9 -54 -24c6 -23 33 -95 121 -317
c1 6 36 97 104 272c5 12 7 23 7 32c0 17 -31 34 -66 41v43h204v-42z" />
    <glyph glyph-name="z" unicode="z" horiz-adv-x="489" 
d="M460 0h-432v34l293 449h-105c-89 -3 -107 -19 -126 -110h-43v165h409v-30l-297 -456h88c118 0 125 3 143 47c13 30 22 59 29 86h41v-185z" />
    <glyph glyph-name="braceleft" unicode="{" horiz-adv-x="455" 
d="M410 -173c-174 0 -242 51 -242 180c0 7 5 45 17 131c0 83 -39 112 -161 121v83c123 10 161 38 161 120c-13 91 -17 120 -17 132c0 129 69 180 242 180v-54c-104 -5 -140 -29 -140 -106c0 -3 0 -3 10 -115c0 -119 -38 -161 -176 -189v-20c132 -26 176 -66 176 -188
c0 -1 -5 -66 -10 -116c0 -76 32 -100 140 -106v-53z" />
    <glyph glyph-name="bar" unicode="|" horiz-adv-x="349" 
d="M209 -180h-69v953h69v-953z" />
    <glyph glyph-name="braceright" unicode="}" horiz-adv-x="455" 
d="M431 259c-122 -9 -161 -38 -161 -121c0 -6 8 -62 17 -131c0 -129 -68 -180 -242 -180v53c108 6 140 30 140 106c-5 50 -10 115 -10 116c0 123 48 163 176 188v20c-135 28 -176 70 -176 189c10 112 10 112 10 115c0 77 -36 101 -140 106v54c173 0 242 -51 242 -180
c0 -4 -3 -31 -17 -132c0 -82 38 -110 161 -120v-83z" />
    <glyph glyph-name="asciitilde" unicode="~" horiz-adv-x="666" 
d="M602 396c-15 -79 -77 -185 -165 -185c-39 0 -82 17 -129 51c-47 35 -80 52 -100 52c-46 0 -68 -23 -99 -105l-45 12c16 101 90 185 165 185c35 0 78 -17 129 -52c63 -44 76 -51 100 -51c47 0 64 19 99 105z" />
    <glyph glyph-name="quotesinglbase" unicode="&#x201a;" horiz-adv-x="1050" 
d="M959 57c0 -97 -88 -162 -221 -162c-86 0 -151 47 -151 110c0 40 26 66 65 66c33 0 49 -15 49 -44c0 -11 -6 -20 -17 -27c-11 -8 -17 -15 -17 -21c0 -25 23 -37 70 -37c67 0 121 55 121 122c0 41 -18 62 -53 62c-15 0 -35 -12 -59 -36l-29 50c101 57 129 78 129 129
c0 39 -23 58 -70 58c-31 0 -58 -13 -61 -30c14 -28 15 -30 15 -40c0 -33 -18 -49 -54 -49c-28 0 -49 22 -49 51c0 62 72 115 167 115c86 0 152 -46 152 -105c0 -53 -42 -87 -127 -104v-4c92 0 140 -36 140 -104zM845 676l-608 -751l-47 35l609 751zM387 252h-280v43
c76 4 95 12 95 38v289h-35c-19 0 -51 16 -96 47l14 33c32 -15 60 -22 84 -22c34 0 73 11 116 34h26c-9 -49 -14 -90 -14 -123v-253c0 -27 24 -39 90 -43v-43z" />
    <glyph glyph-name="florin" unicode="&#x192;" horiz-adv-x="1050" 
d="M974 42c0 -82 -90 -148 -202 -148c-95 0 -169 52 -169 119c0 48 38 96 92 117c-50 28 -75 64 -75 107c0 81 93 138 173 138c98 0 163 -46 163 -115c0 -40 -26 -73 -77 -99c63 -26 95 -66 95 -119zM845 676l-608 -751l-47 35l609 751zM387 252h-280v43c76 4 95 12 95 38
v289h-35c-19 0 -51 16 -96 47l14 33c32 -15 60 -22 84 -22c34 0 73 11 116 34h26c-9 -49 -14 -90 -14 -123v-253c0 -27 24 -39 90 -43v-43zM879 264c0 44 -29 66 -86 66c-51 0 -84 -26 -84 -65c0 -48 36 -73 125 -87c30 10 45 39 45 86zM881 18c0 45 -48 77 -143 96
c-36 -18 -54 -51 -54 -98c0 -51 32 -76 96 -76c58 0 101 28 101 78z" />
    <glyph glyph-name="quotedblbase" unicode="&#x201e;" horiz-adv-x="1050" 
d="M995 57c0 -97 -88 -162 -221 -162c-86 0 -151 47 -151 110c0 40 26 66 65 66c33 0 49 -15 49 -44c0 -11 -6 -20 -17 -27c-11 -8 -17 -15 -17 -21c0 -25 23 -37 70 -37c67 0 121 55 121 122c0 41 -18 62 -53 62c-15 0 -35 -12 -59 -36l-29 50c101 57 129 78 129 129
c0 39 -23 58 -70 58c-31 0 -58 -13 -61 -30c14 -28 15 -30 15 -40c0 -33 -18 -49 -54 -49c-28 0 -49 22 -49 51c0 62 72 115 167 115c86 0 152 -46 152 -105c0 -53 -42 -87 -127 -104v-4c92 0 140 -36 140 -104zM891 676l-608 -751l-47 35l609 751zM476 404l-54 -152h-332
v61c195 123 239 164 239 277c0 51 -24 77 -71 77s-71 -16 -73 -47c23 -35 24 -36 24 -44c0 -35 -20 -52 -60 -52c-29 0 -51 24 -51 57c0 71 81 134 174 134s162 -56 162 -132c0 -101 -44 -147 -226 -239l-4 -13h164c20 0 44 29 73 86z" />
    <glyph glyph-name="ellipsis" unicode="&#x2026;" horiz-adv-x="906" 
d="M830 67c0 -43 -33 -76 -75 -76s-75 34 -75 76s34 76 75 76s75 -34 75 -76zM528 67c0 -43 -33 -76 -75 -76s-75 34 -75 76s34 76 75 76s75 -34 75 -76zM226 67c0 -43 -33 -76 -75 -76s-75 34 -75 76s34 76 75 76s75 -34 75 -76z" />
    <glyph glyph-name="dagger" unicode="&#x2020;" horiz-adv-x="512" 
d="M487 512c0 -37 -29 -64 -68 -64c-15 0 -33 10 -56 29c-22 19 -38 29 -47 29c-13 0 -20 -12 -21 -36c-8 -129 -14 -302 -18 -519h-43c-11 546 -12 555 -39 555c-9 0 -25 -10 -48 -29c-22 -19 -40 -29 -55 -29c-38 0 -67 26 -67 64c0 26 21 48 45 48c27 0 43 -14 48 -43
c54 26 63 30 73 30c18 0 32 -4 43 -13c-20 116 -31 178 -31 186c0 33 22 58 53 58c30 0 53 -25 53 -58c0 -3 -13 -81 -32 -186c11 9 26 13 43 13c9 0 12 -1 73 -30c7 29 23 43 49 43c23 0 45 -23 45 -48z" />
    <glyph glyph-name="daggerdbl" unicode="&#x2021;" horiz-adv-x="512" 
d="M473 157c0 -26 -19 -46 -45 -46c-24 0 -40 14 -49 42c-35 -9 -55 -13 -60 -13c-10 0 -23 4 -39 12c19 -75 29 -126 29 -154c0 -32 -21 -58 -53 -58s-53 26 -53 58c0 28 10 79 29 154c-16 -8 -29 -12 -39 -12c-5 0 -25 4 -60 13c-9 -28 -25 -42 -49 -42
c-26 0 -45 20 -45 46c0 35 19 53 56 53c13 0 30 -5 50 -14c21 -9 38 -14 52 -14c22 0 27 22 41 177c-14 155 -19 177 -41 177c-14 0 -31 -5 -52 -14c-20 -9 -37 -14 -50 -14c-37 0 -56 18 -56 53c0 26 20 46 45 46c24 0 40 -14 49 -42c35 9 55 13 60 13c10 0 23 -4 39 -12
c-19 75 -29 126 -29 154c0 32 21 58 53 58s53 -26 53 -58c0 -28 -10 -79 -29 -154c16 8 29 12 39 12c5 0 25 -4 60 -13c9 28 25 42 49 42c25 0 45 -20 45 -46c0 -35 -19 -53 -56 -53c-13 0 -30 5 -51 14c-20 9 -37 14 -51 14c-22 0 -27 -22 -41 -177
c14 -155 19 -177 41 -177c14 0 31 5 51 14c21 9 38 14 51 14c37 0 56 -18 56 -53z" />
    <glyph glyph-name="circumflex" unicode="&#x2c6;" horiz-adv-x="333" 
d="M327 605l-34 -15l-127 104l-125 -104l-34 15c123 177 125 177 161 177c33 0 34 0 159 -177z" />
    <glyph glyph-name="perthousand" unicode="&#x2030;" horiz-adv-x="1274" 
d="M1244 180c0 -110 -76 -194 -176 -194c-106 0 -172 77 -172 198c0 114 75 200 172 200c110 0 176 -76 176 -204zM844 180c0 -110 -76 -194 -176 -194c-106 0 -172 77 -172 198c0 114 75 200 172 200c110 0 176 -76 176 -204zM727 699l-512 -734l-52 25l508 734zM396 511
c0 -110 -76 -194 -176 -194c-106 0 -172 77 -172 198c0 114 75 200 172 200c110 0 176 -76 176 -204zM1149 180c0 104 -27 156 -80 156c-52 0 -78 -50 -78 -151s27 -152 80 -152c52 0 78 49 78 147zM749 180c0 104 -27 156 -80 156c-52 0 -78 -50 -78 -151s27 -152 80 -152
c52 0 78 49 78 147zM301 511c0 104 -27 156 -80 156c-52 0 -78 -50 -78 -151s27 -152 80 -152c52 0 78 49 78 147z" />
    <glyph glyph-name="Scaron" unicode="&#x160;" horiz-adv-x="583" 
d="M472 949l-129 -150c-17 -20 -22 -23 -50 -23s-29 0 -49 23c-15 17 -59 67 -129 151l31 17l149 -104l148 104zM546 213c0 -132 -101 -226 -243 -226c-77 0 -136 17 -176 51l-33 -48h-42l-7 270h45c54 -145 129 -218 224 -218c83 0 125 42 125 125c0 58 -36 109 -95 132
c-219 90 -278 124 -278 256c0 116 91 201 216 201c58 0 109 -16 153 -49l34 46h41l7 -262h-46c-45 137 -98 209 -205 209c-57 0 -101 -43 -101 -98c0 -73 42 -116 157 -161c171 -66 224 -120 224 -228z" />
    <glyph glyph-name="guilsinglleft" unicode="&#x2039;" horiz-adv-x="1050" 
d="M1005 42c0 -82 -90 -148 -202 -148c-95 0 -169 52 -169 119c0 48 38 96 92 117c-50 28 -75 64 -75 107c0 81 93 138 173 138c98 0 163 -46 163 -115c0 -40 -26 -73 -77 -99c63 -26 95 -66 95 -119zM886 676l-608 -751l-47 35l609 751zM453 398c0 -99 -86 -162 -221 -162
c-86 0 -151 47 -151 110c0 40 26 66 65 66c33 0 49 -15 49 -44c0 -11 -6 -20 -17 -28c-11 -7 -17 -14 -17 -20c0 -25 23 -37 70 -37c68 0 121 53 121 122c0 41 -18 62 -53 62c-15 0 -35 -12 -59 -36l-29 50c101 57 129 78 129 129c0 39 -23 58 -70 58c-31 0 -58 -13 -61 -30
c14 -28 15 -30 15 -40c0 -33 -18 -49 -54 -49c-28 0 -49 22 -49 51c0 62 72 115 167 115c86 0 152 -46 152 -105c0 -53 -42 -87 -127 -104v-4c92 0 140 -36 140 -104zM910 264c0 44 -29 66 -86 66c-51 0 -84 -26 -84 -65c0 -48 36 -73 125 -87c30 10 45 39 45 86zM912 18
c0 45 -48 77 -143 96c-36 -18 -54 -51 -54 -98c0 -51 32 -76 96 -76c58 0 101 28 101 78z" />
    <glyph glyph-name="OE" unicode="&#x152;" horiz-adv-x="1050" 
d="M995 50h-112v-64c0 -29 12 -35 71 -38v-41h-234v41c58 0 73 6 73 33v69h-223v52l263 279h51v-276h111v-55zM906 676l-608 -751l-47 35l609 751zM463 398c0 -99 -86 -162 -221 -162c-86 0 -151 47 -151 110c0 40 26 66 65 66c33 0 49 -15 49 -44c0 -11 -6 -20 -17 -28
c-11 -7 -17 -14 -17 -20c0 -25 23 -37 70 -37c68 0 121 53 121 122c0 41 -18 62 -53 62c-15 0 -35 -12 -59 -36l-29 50c101 57 129 78 129 129c0 39 -23 58 -70 58c-31 0 -58 -13 -61 -30c14 -28 15 -30 15 -40c0 -33 -18 -49 -54 -49c-28 0 -49 22 -49 51
c0 62 72 115 167 115c86 0 152 -46 152 -105c0 -53 -42 -87 -127 -104v-4c92 0 140 -36 140 -104zM792 105v167l-155 -167h155z" />
    <glyph glyph-name="quoteleft" unicode="&#x2018;" horiz-adv-x="234" 
d="M212 738c-78 -46 -107 -78 -114 -134c72 0 95 -16 95 -69c0 -36 -29 -64 -66 -64c-60 0 -90 38 -90 113c0 76 46 142 137 197z" />
    <glyph glyph-name="quoteright" unicode="&#x2019;" horiz-adv-x="234" 
d="M208 665c0 -72 -52 -149 -136 -199l-38 43c75 44 106 81 113 136c-72 0 -95 16 -95 69c0 36 29 64 66 64c60 0 90 -38 90 -113z" />
    <glyph glyph-name="quotedblleft" unicode="&#x201c;" horiz-adv-x="440" 
d="M418 738c-78 -46 -107 -78 -114 -134c72 0 95 -16 95 -69c0 -36 -29 -64 -66 -64c-59 0 -89 38 -89 113c0 76 45 142 136 197zM211 738c-78 -46 -107 -78 -114 -134c72 0 95 -16 95 -69c0 -36 -29 -64 -66 -64c-59 0 -89 38 -89 113c0 76 45 142 136 197z" />
    <glyph glyph-name="quotedblright" unicode="&#x201d;" horiz-adv-x="440" 
d="M414 665c0 -71 -54 -148 -135 -196l-38 43c79 47 106 79 113 133c-72 0 -95 16 -95 69c0 36 29 64 66 64c59 0 89 -38 89 -113zM207 665c0 -71 -54 -148 -135 -196l-38 43c79 47 106 79 113 133c-72 0 -95 16 -95 69c0 36 29 64 66 64c59 0 89 -38 89 -113z" />
    <glyph glyph-name="bullet" unicode="&#x2022;" horiz-adv-x="432" 
d="M366 325c0 -80 -68 -147 -150 -147c-83 0 -150 65 -150 147s68 150 150 150c81 0 150 -69 150 -150z" />
    <glyph glyph-name="endash" unicode="&#x2013;" 
d="M550 250h-500v73h500v-73z" />
    <glyph glyph-name="emdash" unicode="&#x2014;" horiz-adv-x="930" 
d="M876 244h-822v73h822v-73z" />
    <glyph glyph-name="tilde" unicode="&#x2dc;" horiz-adv-x="333" 
d="M361 766c-20 -74 -76 -129 -132 -129c-24 0 -50 7 -79 22s-51 23 -67 23c-28 0 -29 -1 -64 -63l-40 17c25 74 76 124 128 124c26 0 54 -8 83 -24c24 -13 44 -20 59 -20c42 0 43 2 72 61z" />
    <glyph glyph-name="trademark" unicode="&#x2122;" horiz-adv-x="863" 
d="M825 406h-172v34c40 0 55 5 55 19v190l-105 -237h-23l-98 240v-144c0 -54 9 -68 62 -68v-34h-161v31c59 9 59 14 59 69v163c0 29 -14 39 -56 42v32h127l96 -223l78 179c3 7 7 21 14 44h124v-33c-45 -3 -50 -5 -50 -20v-231c0 -14 14 -19 50 -19v-34zM351 639l-31 1
c-19 61 -32 68 -90 68v-246c0 -16 12 -22 53 -22v-34h-174v34c45 0 53 5 53 18v250c-58 0 -71 -5 -91 -68l-30 -1v104h310v-104z" />
    <glyph glyph-name="scaron" unicode="&#x161;" horiz-adv-x="459" 
d="M395 768c-123 -177 -124 -177 -161 -177c-28 0 -31 4 -47 23c-16 21 -53 72 -112 154l34 15l127 -104l125 104zM419 156c0 -99 -81 -170 -192 -170c-46 0 -104 21 -128 47l-11 -37h-45l-5 192h47c18 -81 83 -150 147 -150c67 0 101 28 101 83c0 51 -34 81 -125 108
c-105 32 -157 88 -157 167c0 90 73 156 172 156c46 0 83 -10 111 -31l9 32h43l8 -175h-47c-18 102 -86 121 -125 121c-49 0 -85 -28 -85 -64c0 -55 24 -74 125 -109c103 -36 157 -80 157 -170z" />
    <glyph glyph-name="guilsinglright" unicode="&#x203a;" horiz-adv-x="1050" 
d="M1000 42c0 -82 -90 -148 -202 -148c-95 0 -169 52 -169 119c0 48 38 96 92 117c-50 28 -75 64 -75 107c0 81 93 138 173 138c98 0 163 -46 163 -115c0 -40 -26 -73 -77 -99c63 -26 95 -66 95 -119zM881 676l-608 -751l-47 35l609 751zM468 696c-36 -64 -110 -96 -221 -96
c-11 0 -23 1 -49 3l-22 -94c28 17 60 26 96 26c105 0 173 -59 173 -151c0 -88 -92 -155 -205 -155c-95 0 -162 39 -162 94c0 33 23 55 57 55c31 0 46 -13 46 -40c-5 -23 -8 -36 -8 -37c3 -13 33 -25 67 -25c68 0 102 42 102 125c0 56 -39 85 -83 85c-52 0 -85 -17 -99 -52
l-48 14l62 260h39c17 -19 54 -28 111 -28c39 0 79 14 120 41zM905 264c0 44 -29 66 -86 66c-51 0 -84 -26 -84 -65c0 -48 36 -73 125 -87c30 10 45 39 45 86zM907 18c0 45 -48 77 -143 96c-36 -18 -54 -51 -54 -98c0 -51 32 -76 96 -76c58 0 101 28 101 78z" />
    <glyph glyph-name="oe" unicode="&#x153;" horiz-adv-x="1050" 
d="M953 42c0 -82 -90 -148 -202 -148c-95 0 -169 52 -169 119c0 48 38 96 92 117c-50 28 -75 64 -75 107c0 81 93 138 173 138c98 0 163 -46 163 -115c0 -40 -26 -73 -77 -99c63 -26 95 -66 95 -119zM818 676l-608 -751l-47 35l609 751zM454 672
c-133 -181 -175 -272 -184 -415c-3 -45 -22 -68 -58 -68c-35 0 -52 19 -52 57c0 28 28 95 85 200c12 23 51 80 117 173h-178c-33 0 -59 -27 -76 -81l-36 5l51 198h35l6 -39h290v-30zM858 264c0 44 -29 66 -86 66c-51 0 -84 -26 -84 -65c0 -48 36 -73 125 -87
c30 10 45 39 45 86zM860 18c0 45 -48 77 -143 96c-36 -18 -54 -51 -54 -98c0 -51 32 -76 96 -76c58 0 101 28 101 78z" />
    <glyph glyph-name="Ydieresis" unicode="&#x178;" horiz-adv-x="655" 
d="M539 897c0 -39 -29 -70 -67 -70s-66 29 -66 66c0 38 29 68 66 68c38 0 67 -28 67 -64zM307 897c0 -39 -30 -70 -68 -70c-37 0 -65 29 -65 66s29 68 65 68c39 0 68 -27 68 -64zM691 697c-96 -9 -120 -50 -276 -340c-24 -45 -36 -84 -36 -118v-123c0 -48 29 -60 117 -70
v-46h-352v46c103 11 117 17 117 65v166c0 30 -29 97 -155 332c-32 59 -73 85 -138 88v46h341v-46c-77 -4 -102 -8 -102 -25c0 -14 50 -115 151 -303c103 170 154 266 154 289c0 22 -33 35 -99 39v46h278v-46z" />
    <glyph glyph-name="nonbreakingspace" unicode="&#xa0;" horiz-adv-x="300" 
 />
    <glyph glyph-name="exclamdown" unicode="&#xa1;" horiz-adv-x="339" 
d="M246 688c0 -41 -32 -74 -73 -74c-42 0 -73 32 -73 74s32 74 73 74c40 0 73 -34 73 -74zM243 67c0 -43 -30 -76 -70 -76c-41 0 -71 32 -71 76c38 348 49 445 49 453h46c0 -3 40 -397 46 -453z" />
    <glyph glyph-name="cent" unicode="&#xa2;" 
d="M541 183c-43 -77 -103 -121 -182 -133l1 -161h-54l1 159c-145 9 -229 109 -229 271c0 140 96 252 229 268l-1 138h54l-1 -138c62 -5 174 -31 174 -127c0 -45 -24 -74 -62 -74c-33 0 -56 24 -56 58c0 22 1 27 20 66c-14 14 -39 23 -76 27v-425c60 3 108 36 143 99z
M307 117v418c-77 -18 -120 -93 -120 -211c0 -113 40 -182 120 -207z" />
    <glyph glyph-name="sterling" unicode="&#xa3;" 
d="M577 219c-15 -165 -88 -248 -221 -248c-47 0 -109 24 -186 72c-37 -33 -70 -50 -100 -50c-47 0 -71 20 -71 61c0 39 28 59 84 59c15 0 43 -5 83 -15c11 25 17 55 17 91c0 33 -5 68 -15 104h-129v54h122c-26 73 -31 89 -31 138c0 143 98 244 241 244
c108 0 178 -62 178 -159c0 -57 -28 -93 -72 -93c-45 0 -68 22 -68 67c0 32 11 40 50 65c0 40 -38 70 -90 70c-78 0 -125 -55 -125 -144c0 -15 4 -46 13 -93s14 -78 14 -95h163v-54h-164c0 -105 -16 -159 -64 -207c34 -11 83 -17 146 -17c134 0 159 49 172 158z" />
    <glyph glyph-name="currency" unicode="&#xa4;" 
d="M559 169c-44 -123 -118 -184 -221 -184c-143 0 -223 84 -242 253h-85v54h80v89h-80v54h84c24 170 128 280 263 280c125 0 195 -64 195 -151c0 -40 -23 -76 -67 -76c-42 0 -68 26 -68 68c0 21 3 26 28 66c-8 24 -46 40 -92 40c-84 0 -141 -86 -151 -227h189v-54h-194v-89
h162v-54h-156c14 -120 66 -180 155 -180c80 0 118 46 148 132z" />
    <glyph glyph-name="yen" unicode="&#xa5;" 
d="M605 651c-85 -12 -90 -22 -248 -334h184v-54h-189v-147c0 -48 27 -65 108 -70v-46h-326v46c98 6 114 16 114 65v152h-190v54h184l-120 251c-30 62 -56 79 -121 83v46h294v-46c-66 -4 -81 -8 -81 -24c0 -13 39 -100 117 -262c79 149 119 232 119 249c0 24 -17 31 -81 37
v46h236v-46z" />
    <glyph glyph-name="brokenbar" unicode="&#xa6;" horiz-adv-x="349" 
d="M209 396h-69v377h69v-377zM209 -180h-69v384h69v-384z" />
    <glyph glyph-name="section" unicode="&#xa7;" 
d="M536 226c0 -65 -61 -125 -149 -147c47 -51 61 -79 61 -121c0 -79 -79 -142 -179 -142c-92 0 -162 48 -162 111c0 37 26 63 67 63c36 0 67 -24 67 -52c0 -8 -3 -17 -8 -27s-7 -18 -7 -24c0 -15 18 -22 53 -22c49 0 81 28 81 72c0 35 -1 37 -213 218c-55 49 -82 99 -82 151
c0 71 70 127 150 147c-41 45 -62 85 -62 120c0 80 79 143 181 143c86 0 155 -49 155 -110c0 -43 -22 -64 -67 -64c-37 0 -62 24 -62 52c0 6 0 6 15 51c0 15 -17 22 -51 22c-51 0 -83 -30 -83 -73c0 -34 10 -44 213 -217c55 -49 82 -99 82 -151zM439 208c0 30 -11 55 -34 76
c-39 33 -91 78 -156 135c-58 -21 -87 -52 -87 -95c0 -30 11 -55 34 -76c38 -31 90 -76 157 -135c57 20 86 52 86 95z" />
    <glyph glyph-name="dieresis" unicode="&#xa8;" horiz-adv-x="333" 
d="M333 703c0 -39 -28 -68 -63 -68s-62 29 -62 64c0 36 28 66 62 66c35 0 63 -28 63 -62zM125 703c0 -39 -27 -68 -64 -68c-33 0 -61 29 -61 64c0 36 28 66 61 66c35 0 64 -27 64 -62z" />
    <glyph glyph-name="copyright" unicode="&#xa9;" horiz-adv-x="1002" 
d="M935 287c0 -246 -197 -444 -443 -444c-249 0 -445 196 -445 444c0 246 197 442 445 442c245 0 443 -198 443 -442zM881 287c0 218 -172 392 -389 392c-218 0 -391 -173 -391 -392c0 -172 125 -395 391 -395c219 0 389 173 389 395zM700 198c-48 -101 -115 -152 -202 -152
c-151 0 -246 92 -246 238c0 144 108 246 260 246c41 0 76 -10 105 -29l20 33h42v-194h-41c-35 106 -71 142 -145 142c-77 0 -126 -74 -126 -193c0 -107 62 -181 151 -181c66 0 105 30 142 109z" />
    <glyph glyph-name="ordfeminine" unicode="&#xaa;" horiz-adv-x="761" 
d="M726 0h-691v692h691v-692z" />
    <glyph glyph-name="guillemotleft" unicode="&#xab;" horiz-adv-x="642" 
d="M582 83l-30 -31l-213 179c-24 21 -27 24 -27 50c0 19 8 35 24 48l215 181l31 -30l-157 -199zM334 83l-30 -31l-213 179c-24 21 -27 24 -27 50c0 19 8 35 24 48l215 181l31 -30l-157 -199z" />
    <glyph glyph-name="logicalnot" unicode="&#xac;" horiz-adv-x="666" 
d="M579 28h-77v244h-429v72h506v-316z" />
    <glyph glyph-name="registered" unicode="&#xae;" horiz-adv-x="704" 
d="M649 455c0 -164 -133 -297 -297 -297c-166 0 -298 131 -298 297c0 164 132 295 298 295c164 0 297 -133 297 -295zM606 455c0 142 -114 257 -254 257c-142 0 -255 -114 -255 -257c0 -145 113 -259 255 -259s254 114 254 259zM541 303h-114c-25 121 -45 146 -108 146v-95
c0 -14 3 -14 49 -19v-32h-161v32c39 0 48 4 48 19v220c0 14 -10 18 -48 21v31h167c64 0 103 -30 103 -78c0 -39 -26 -66 -78 -82c50 -13 64 -36 85 -107c6 -19 15 -20 57 -24v-32zM405 543c0 33 -18 50 -55 50h-31v-109c47 0 86 10 86 59z" />
    <glyph glyph-name="macron" unicode="&#xaf;" horiz-adv-x="333" 
d="M332 660h-331v74h331v-74z" />
    <glyph glyph-name="degree" unicode="&#xb0;" horiz-adv-x="494" 
d="M438 587c0 -109 -79 -186 -191 -186c-110 0 -186 75 -186 185c0 112 77 192 186 192c115 0 191 -76 191 -191zM349 585c0 86 -40 139 -101 139c-58 0 -98 -55 -98 -133c0 -84 37 -136 101 -136c57 0 98 54 98 130z" />
    <glyph glyph-name="plusminus" unicode="&#xb1;" horiz-adv-x="666" 
d="M588 29h-510v72h218v197h-218v72h218v222h74v-222h218v-72h-218v-197h218v-72z" />
    <glyph glyph-name="acute" unicode="&#xb4;" horiz-adv-x="333" 
d="M299 731c0 -25 -18 -44 -55 -59c-28 -10 -90 -36 -188 -76l-18 30c182 156 183 156 208 156c31 0 53 -21 53 -51z" />
    <glyph glyph-name="paragraph" unicode="&#xb6;" horiz-adv-x="639" 
d="M622 695h-124v-840h-55v840h-88v-840h-55v515c-177 0 -255 56 -255 184c0 109 72 189 201 189h376v-48z" />
    <glyph glyph-name="periodcentered" unicode="&#xb7;" horiz-adv-x="300" 
d="M226 301c0 -43 -33 -76 -75 -76s-75 34 -75 76s34 76 75 76s75 -34 75 -76z" />
    <glyph glyph-name="cedilla" unicode="&#xb8;" horiz-adv-x="333" 
d="M294 -105c0 -65 -71 -97 -212 -97v41c99 0 131 9 131 40c0 23 -8 23 -75 26v98h40v-41c77 0 116 -22 116 -67z" />
    <glyph glyph-name="ordmasculine" unicode="&#xba;" horiz-adv-x="843" 
d="M773 349l-703 -349v688z" />
    <glyph glyph-name="guillemotright" unicode="&#xbb;" horiz-adv-x="642" 
d="M578 281c0 -26 -3 -29 -27 -50l-212 -179l-30 31l156 198l-156 199l31 30l214 -181c16 -13 24 -29 24 -48zM330 281c0 -26 -3 -29 -27 -50l-212 -179l-30 31l156 198l-156 199l31 30l214 -181c16 -13 24 -29 24 -48z" />
    <glyph glyph-name="onequarter" unicode="&#xbc;" horiz-adv-x="1050" 
d="M942 50h-112v-64c0 -29 12 -35 71 -38v-41h-234v41c50 0 73 2 73 33v69h-223v52l263 279h51v-276h111v-55zM852 676l-608 -751l-47 35l609 751zM387 252h-280v43c76 4 95 12 95 38v289h-35c-19 0 -51 16 -96 47l14 33c32 -15 60 -22 84 -22c34 0 73 11 116 34h26
c-9 -49 -14 -90 -14 -123v-253c0 -27 24 -39 90 -43v-43zM739 105v167l-155 -167h155z" />
    <glyph glyph-name="onehalf" unicode="&#xbd;" horiz-adv-x="1050" 
d="M996 60l-54 -152h-332v61c195 123 239 164 239 277c0 51 -24 77 -71 77s-71 -16 -73 -47c23 -35 24 -36 24 -44c0 -35 -20 -52 -60 -52c-29 0 -51 24 -51 57c0 71 81 134 174 134s162 -56 162 -132c0 -101 -44 -147 -226 -239l-4 -13h164c20 0 44 29 73 86zM844 676
l-608 -751l-47 35l609 751zM387 252h-280v43c76 4 95 12 95 38v289h-35c-19 0 -51 16 -96 47l14 33c32 -15 60 -22 84 -22c34 0 73 11 116 34h26c-9 -49 -14 -90 -14 -123v-253c0 -27 24 -39 90 -43v-43z" />
    <glyph glyph-name="threequarters" unicode="&#xbe;" horiz-adv-x="1050" 
d="M995 50h-112v-64c0 -29 12 -35 71 -38v-41h-234v41c58 0 73 6 73 33v69h-223v52l263 279h51v-276h111v-55zM906 676l-608 -751l-47 35l609 751zM463 398c0 -99 -86 -162 -221 -162c-86 0 -151 47 -151 110c0 40 26 66 65 66c33 0 49 -15 49 -44c0 -11 -6 -20 -17 -28
c-11 -7 -17 -14 -17 -20c0 -25 23 -37 70 -37c68 0 121 53 121 122c0 41 -18 62 -53 62c-15 0 -35 -12 -59 -36l-29 50c101 57 129 78 129 129c0 39 -23 58 -70 58c-31 0 -58 -13 -61 -30c14 -28 15 -30 15 -40c0 -33 -18 -49 -54 -49c-28 0 -49 22 -49 51
c0 62 72 115 167 115c86 0 152 -46 152 -105c0 -53 -42 -87 -127 -104v-4c92 0 140 -36 140 -104zM792 105v167l-155 -167h155z" />
    <glyph glyph-name="questiondown" unicode="&#xbf;" horiz-adv-x="480" 
d="M357 685c0 -40 -33 -73 -73 -73c-42 0 -73 31 -73 73s32 74 73 74c40 0 73 -34 73 -74zM433 111c0 -65 -76 -120 -178 -120c-135 0 -218 81 -218 211c0 122 86 214 220 232v108h55v-198c-124 -17 -171 -61 -171 -155c0 -97 39 -145 117 -145c27 0 48 7 61 20
c-7 22 -10 41 -10 58c0 32 28 56 66 56c39 0 58 -22 58 -67z" />
    <glyph glyph-name="Agrave" unicode="&#xc0;" horiz-adv-x="725" 
d="M480 821l-15 -30l-200 68c-38 13 -57 32 -57 57c0 28 22 51 50 51c26 0 27 0 222 -146zM752 0h-330v46c69 4 103 14 103 29c0 8 -2 16 -5 25l-57 151h-252c-32 -87 -46 -136 -46 -159c0 -27 38 -42 115 -46v-46h-304v46c68 3 110 31 134 92c53 137 132 342 236 616h50
l239 -638c16 -43 56 -67 117 -70v-46zM442 306l-105 281l-105 -281h210z" />
    <glyph glyph-name="Aacute" unicode="&#xc1;" horiz-adv-x="725" 
d="M529 916c0 -25 -19 -44 -57 -57l-200 -68l-15 30l156 117c26 19 48 29 66 29c28 0 50 -23 50 -51zM752 0h-330v46c69 4 103 14 103 29c0 8 -2 16 -5 25l-57 151h-252c-32 -87 -46 -136 -46 -159c0 -27 38 -42 115 -46v-46h-304v46c68 3 110 31 134 92
c53 137 132 342 236 616h50l239 -638c16 -43 56 -67 117 -70v-46zM442 306l-105 281l-105 -281h210z" />
    <glyph glyph-name="Acircumflex" unicode="&#xc2;" horiz-adv-x="725" 
d="M549 782l-31 -17l-149 104l-148 -104l-29 18l129 150c16 18 16 19 50 23c28 0 29 0 49 -23c15 -17 59 -67 129 -151zM752 0h-330v46c69 4 103 14 103 29c0 8 -2 16 -5 25l-57 151h-252c-32 -87 -46 -136 -46 -159c0 -27 38 -42 115 -46v-46h-304v46c68 3 110 31 134 92
c53 137 132 342 236 616h50l239 -638c16 -43 56 -67 117 -70v-46zM442 306l-105 281l-105 -281h210z" />
    <glyph glyph-name="Atilde" unicode="&#xc3;" horiz-adv-x="725" 
d="M573 948c-20 -75 -76 -128 -133 -128c-25 0 -53 7 -85 22c-31 15 -56 23 -73 23c-31 0 -38 -10 -67 -62l-37 17c20 67 73 123 128 123c30 0 60 -8 90 -24c25 -13 46 -20 64 -20c44 0 47 6 75 60zM752 0h-330v46c69 4 103 14 103 29c0 8 -2 16 -5 25l-57 151h-252
c-32 -87 -46 -136 -46 -159c0 -27 38 -42 115 -46v-46h-304v46c68 3 110 31 134 92c53 137 132 342 236 616h50l239 -638c16 -43 56 -67 117 -70v-46zM442 306l-105 281l-105 -281h210z" />
    <glyph glyph-name="Adieresis" unicode="&#xc4;" horiz-adv-x="725" 
d="M550 887c0 -39 -29 -70 -67 -70s-66 29 -66 66c0 38 29 68 66 68c38 0 67 -28 67 -64zM318 887c0 -39 -30 -70 -68 -70c-37 0 -65 29 -65 66s29 68 65 68c39 0 68 -27 68 -64zM752 0h-330v46c69 4 103 14 103 29c0 8 -2 16 -5 25l-57 151h-252c-32 -87 -46 -136 -46 -159
c0 -27 38 -42 115 -46v-46h-304v46c68 3 110 31 134 92c53 137 132 342 236 616h50l239 -638c16 -43 56 -67 117 -70v-46zM442 306l-105 281l-105 -281h210z" />
    <glyph glyph-name="Aring" unicode="&#xc5;" horiz-adv-x="725" 
d="M752 0h-330v46c69 4 103 14 103 29c0 8 -2 16 -5 25l-57 151h-252c-32 -87 -46 -136 -46 -159c0 -27 38 -42 115 -46v-46h-304v46c69 3 111 32 134 92c48 128 122 319 221 575c-62 9 -99 49 -99 107c0 63 57 110 134 110c79 0 134 -45 134 -110c0 -52 -34 -92 -90 -105
l225 -599c16 -43 56 -67 117 -70v-46zM427 820c0 49 -20 74 -61 74s-61 -25 -61 -74s20 -74 61 -74s61 25 61 74zM442 306l-105 281l-105 -281h210z" />
    <glyph glyph-name="AE" unicode="&#xc6;" horiz-adv-x="1050" 
d="M996 60l-54 -152h-332v61c195 123 239 164 239 277c0 51 -24 77 -71 77s-71 -16 -73 -47c23 -35 24 -36 24 -44c0 -35 -20 -52 -60 -52c-29 0 -51 24 -51 57c0 71 81 134 174 134s162 -56 162 -132c0 -101 -44 -147 -226 -239l-4 -13h164c20 0 44 29 73 86zM844 676
l-608 -751l-47 35l609 751zM387 252h-280v43c76 4 95 12 95 38v289h-35c-19 0 -51 16 -96 47l14 33c32 -15 60 -22 84 -22c34 0 73 11 116 34h26c-9 -49 -14 -90 -14 -123v-253c0 -27 24 -39 90 -43v-43z" />
    <glyph glyph-name="Ccedilla" unicode="&#xc7;" horiz-adv-x="682" 
d="M671 189c-57 -135 -151 -204 -290 -204v-23c77 0 116 -23 116 -68c0 -68 -64 -96 -212 -96v41c103 0 131 9 131 39c0 24 -9 25 -75 27v82c-185 19 -302 164 -302 376c0 227 155 394 366 394c57 0 126 -24 157 -55l28 52h49l4 -278h-45c-48 151 -123 227 -224 227
c-126 0 -204 -127 -204 -331c0 -181 102 -309 246 -309c103 0 156 39 209 153z" />
    <glyph glyph-name="Egrave" unicode="&#xc8;" horiz-adv-x="689" 
d="M484 821l-15 -30l-200 68c-38 13 -57 32 -57 57c0 28 22 51 50 51c26 0 27 0 222 -146zM667 225l-14 -225h-619v46c91 5 114 18 114 64v516c0 46 -41 67 -114 71v46h577v-186h-45c-13 55 -71 125 -111 131c-21 3 -50 5 -86 5h-103v-282h73c76 0 110 36 119 126h45v-309
h-45c-1 28 -19 83 -32 99c-19 22 -48 33 -87 33h-73v-212c0 -84 14 -95 119 -95c147 0 155 5 205 97c17 31 28 56 35 75h42z" />
    <glyph glyph-name="Eacute" unicode="&#xc9;" horiz-adv-x="689" 
d="M509 916c0 -25 -19 -44 -57 -57l-200 -68l-15 30l156 117c26 19 48 29 66 29c28 0 50 -23 50 -51zM667 225l-14 -225h-619v46c91 5 114 18 114 64v516c0 46 -41 67 -114 71v46h577v-186h-45c-13 55 -71 125 -111 131c-21 3 -50 5 -86 5h-103v-282h73c76 0 110 36 119 126
h45v-309h-45c-1 28 -19 83 -32 99c-19 22 -48 33 -87 33h-73v-212c0 -84 14 -95 119 -95c147 0 155 5 205 97c17 31 28 56 35 75h42z" />
    <glyph glyph-name="Ecircumflex" unicode="&#xca;" horiz-adv-x="689" 
d="M539 793l-31 -17l-149 104l-148 -104l-29 18l129 150c16 18 16 19 50 23c28 0 29 0 49 -23c15 -17 59 -67 129 -151zM667 225l-14 -225h-619v46c91 5 114 18 114 64v516c0 46 -41 67 -114 71v46h577v-186h-45c-13 55 -71 125 -111 131c-21 3 -50 5 -86 5h-103v-282h73
c76 0 110 36 119 126h45v-309h-45c-1 28 -19 83 -32 99c-19 22 -48 33 -87 33h-73v-212c0 -84 14 -95 119 -95c147 0 155 5 205 97c17 31 28 56 35 75h42z" />
    <glyph glyph-name="Edieresis" unicode="&#xcb;" horiz-adv-x="689" 
d="M538 897c0 -39 -29 -70 -67 -70s-66 29 -66 66c0 38 29 68 66 68c38 0 67 -28 67 -64zM306 897c0 -39 -30 -70 -68 -70c-37 0 -65 29 -65 66s29 68 65 68c39 0 68 -27 68 -64zM667 225l-14 -225h-619v46c91 5 114 18 114 64v516c0 46 -41 67 -114 71v46h577v-186h-45
c-13 55 -71 125 -111 131c-21 3 -50 5 -86 5h-103v-282h73c76 0 110 36 119 126h45v-309h-45c-1 28 -19 83 -32 99c-19 22 -48 33 -87 33h-73v-212c0 -84 14 -95 119 -95c147 0 155 5 205 97c17 31 28 56 35 75h42z" />
    <glyph glyph-name="Igrave" unicode="&#xcc;" horiz-adv-x="418" 
d="M353 821l-15 -30l-200 68c-38 13 -57 32 -57 57c0 28 22 51 50 51c26 0 27 0 222 -146zM376 0h-334v46c83 5 108 12 108 61v520c0 42 -29 62 -108 70v46h334v-46c-91 -10 -108 -21 -108 -65v-520c0 -44 28 -61 108 -66v-46z" />
    <glyph glyph-name="Iacute" unicode="&#xcd;" horiz-adv-x="418" 
d="M349 916c0 -25 -19 -44 -57 -57l-200 -68l-15 30l156 117c26 19 48 29 66 29c28 0 50 -23 50 -51zM376 0h-334v46c83 5 108 12 108 61v520c0 42 -29 62 -108 70v46h334v-46c-91 -10 -108 -21 -108 -65v-520c0 -44 28 -61 108 -66v-46z" />
    <glyph glyph-name="Icircumflex" unicode="&#xce;" horiz-adv-x="418" 
d="M388 793l-31 -17l-149 104l-148 -104l-29 18l129 150c16 18 16 19 50 23c28 0 29 0 49 -23c15 -17 59 -67 129 -151zM376 0h-334v46c83 5 108 12 108 61v520c0 42 -29 62 -108 70v46h334v-46c-91 -10 -108 -21 -108 -65v-520c0 -44 28 -61 108 -66v-46z" />
    <glyph glyph-name="Idieresis" unicode="&#xcf;" horiz-adv-x="418" 
d="M391 897c0 -39 -29 -70 -67 -70c-37 0 -66 29 -66 66c0 38 29 68 66 68c38 0 67 -28 67 -64zM164 897c0 -39 -30 -70 -68 -70c-37 0 -65 29 -65 66s29 68 65 68c39 0 68 -27 68 -64zM376 0h-334v46c83 5 108 12 108 61v520c0 42 -29 62 -108 70v46h334v-46
c-91 -10 -108 -21 -108 -65v-520c0 -44 28 -61 108 -66v-46z" />
    <glyph glyph-name="Eth" unicode="&#xd0;" horiz-adv-x="803" 
d="M764 367c0 -221 -161 -367 -405 -367h-320v46c83 0 109 15 109 62v252h-111v56h111v210c0 44 -34 68 -105 71v46h334c231 0 387 -149 387 -376zM629 368c0 192 -115 323 -284 323h-79v-275h182v-56h-182v-225c0 -55 36 -83 108 -83c162 0 255 115 255 316z" />
    <glyph glyph-name="Ntilde" unicode="&#xd1;" horiz-adv-x="822" 
d="M626 956c-20 -75 -76 -128 -133 -128c-25 0 -53 7 -85 22c-31 15 -56 23 -73 23c-31 0 -38 -10 -67 -62l-37 17c20 67 73 123 128 123c30 0 60 -8 90 -24c25 -13 46 -20 64 -20c44 0 47 6 75 60zM833 697c-24 -1 -78 -16 -95 -26c-23 -15 -35 -62 -35 -142v-536h-53
l-387 523c-25 33 -45 66 -60 101v-392c0 -142 13 -152 142 -179v-46h-332v46c23 2 86 20 97 28c23 16 34 64 34 145v354c0 78 -50 121 -140 124v46h229l411 -555v335c0 125 -13 142 -86 162c-24 7 -42 11 -55 12v46h330v-46z" />
    <glyph glyph-name="Ograve" unicode="&#xd2;" horiz-adv-x="793" 
d="M534 821l-15 -30l-200 68c-38 13 -57 32 -57 57c0 28 22 51 50 51c26 0 27 0 222 -146zM753 376c0 -232 -147 -392 -360 -392c-203 0 -353 162 -353 380c0 233 146 395 357 395c206 0 356 -157 356 -383zM619 373c0 208 -82 331 -222 331c-186 0 -223 -203 -223 -335
c0 -205 84 -330 223 -330s222 124 222 334z" />
    <glyph glyph-name="Oacute" unicode="&#xd3;" horiz-adv-x="793" 
d="M545 916c0 -25 -19 -44 -57 -57l-200 -68l-15 30l156 117c26 19 48 29 66 29c28 0 50 -23 50 -51zM753 376c0 -232 -147 -392 -360 -392c-203 0 -353 162 -353 380c0 233 146 395 357 395c206 0 356 -157 356 -383zM619 373c0 208 -82 331 -222 331
c-186 0 -223 -203 -223 -335c0 -205 84 -330 223 -330s222 124 222 334z" />
    <glyph glyph-name="Ocircumflex" unicode="&#xd4;" horiz-adv-x="793" 
d="M576 793l-31 -17l-149 104l-148 -104l-29 18l129 150c16 18 16 19 50 23c28 0 29 0 49 -23c15 -17 59 -67 129 -151zM753 376c0 -232 -147 -392 -360 -392c-203 0 -353 162 -353 380c0 233 146 395 357 395c206 0 356 -157 356 -383zM619 373c0 208 -82 331 -222 331
c-186 0 -223 -203 -223 -335c0 -205 84 -330 223 -330s222 124 222 334z" />
    <glyph glyph-name="Otilde" unicode="&#xd5;" horiz-adv-x="793" 
d="M612 956c-20 -75 -76 -128 -133 -128c-25 0 -53 7 -85 22c-31 15 -56 23 -73 23c-31 0 -38 -10 -67 -62l-37 17c20 67 73 123 128 123c30 0 60 -8 90 -24c25 -13 46 -20 64 -20c44 0 47 6 75 60zM753 376c0 -232 -147 -392 -360 -392c-203 0 -353 162 -353 380
c0 233 146 395 357 395c206 0 356 -157 356 -383zM619 373c0 208 -82 331 -222 331c-186 0 -223 -203 -223 -335c0 -205 84 -330 223 -330s222 124 222 334z" />
    <glyph glyph-name="Odieresis" unicode="&#xd6;" horiz-adv-x="793" 
d="M579 897c0 -39 -29 -70 -67 -70c-37 0 -66 29 -66 66c0 38 29 68 66 68c38 0 67 -28 67 -64zM347 897c0 -39 -30 -70 -68 -70c-37 0 -65 29 -65 66s29 68 65 68c39 0 68 -27 68 -64zM753 376c0 -232 -147 -392 -360 -392c-203 0 -353 162 -353 380c0 233 146 395 357 395
c206 0 356 -157 356 -383zM619 373c0 208 -82 331 -222 331c-186 0 -223 -203 -223 -335c0 -205 84 -330 223 -330s222 124 222 334z" />
    <glyph glyph-name="multiply" unicode="&#xd7;" horiz-adv-x="666" 
d="M577 96l-52 -52l-192 193l-192 -193l-52 52l193 192l-193 192l52 52l192 -193l192 193l52 -52l-193 -192z" />
    <glyph glyph-name="Ugrave" unicode="&#xd9;" horiz-adv-x="817" 
d="M560 821l-15 -30l-200 68c-38 13 -57 32 -57 57c0 28 22 51 50 51c26 0 27 0 222 -146zM815 697c-108 -5 -130 -33 -130 -166v-315c0 -139 -114 -232 -272 -232c-166 0 -279 85 -279 211v431c0 44 -33 66 -105 71v46h331v-46c-83 -5 -107 -20 -107 -66v-389
c0 -124 60 -186 179 -186c125 0 193 66 193 187v281c0 80 -12 128 -35 143c-28 18 -63 28 -106 30v46h331v-46z" />
    <glyph glyph-name="Uacute" unicode="&#xda;" horiz-adv-x="817" 
d="M589 916c0 -25 -19 -44 -57 -57l-200 -68l-15 30l156 117c26 19 48 29 66 29c28 0 50 -23 50 -51zM815 697c-108 -5 -130 -33 -130 -166v-315c0 -139 -114 -232 -272 -232c-166 0 -279 85 -279 211v431c0 44 -33 66 -105 71v46h331v-46c-83 -5 -107 -20 -107 -66v-389
c0 -124 60 -186 179 -186c125 0 193 66 193 187v281c0 80 -12 128 -35 143c-28 18 -63 28 -106 30v46h331v-46z" />
    <glyph glyph-name="Ucircumflex" unicode="&#xdb;" horiz-adv-x="817" 
d="M604 793l-31 -17l-149 104l-148 -104l-29 18l129 150c16 18 16 19 50 23c28 0 29 0 49 -23c15 -17 59 -67 129 -151zM815 697c-108 -5 -130 -33 -130 -166v-315c0 -139 -114 -232 -272 -232c-166 0 -279 85 -279 211v431c0 44 -33 66 -105 71v46h331v-46
c-83 -5 -107 -20 -107 -66v-389c0 -124 60 -186 179 -186c125 0 193 66 193 187v281c0 80 -12 128 -35 143c-28 18 -63 28 -106 30v46h331v-46z" />
    <glyph glyph-name="Udieresis" unicode="&#xdc;" horiz-adv-x="817" 
d="M609 897c0 -39 -29 -70 -67 -70s-66 29 -66 66c0 38 29 68 66 68c38 0 67 -28 67 -64zM377 897c0 -39 -30 -70 -68 -70c-37 0 -65 29 -65 66s29 68 65 68c39 0 68 -27 68 -64zM815 697c-108 -5 -130 -33 -130 -166v-315c0 -139 -114 -232 -272 -232
c-166 0 -279 85 -279 211v431c0 44 -33 66 -105 71v46h331v-46c-83 -5 -107 -20 -107 -66v-389c0 -124 60 -186 179 -186c125 0 193 66 193 187v281c0 80 -12 128 -35 143c-28 18 -63 28 -106 30v46h331v-46z" />
    <glyph glyph-name="Yacute" unicode="&#xdd;" horiz-adv-x="655" 
d="M513 916c0 -25 -19 -44 -57 -57l-200 -68l-15 30l156 117c26 19 48 29 66 29c28 0 50 -23 50 -51zM691 697c-96 -9 -120 -50 -276 -340c-24 -45 -36 -84 -36 -118v-123c0 -48 29 -60 117 -70v-46h-352v46c103 11 117 17 117 65v166c0 30 -29 97 -155 332
c-32 59 -73 85 -138 88v46h341v-46c-77 -4 -102 -8 -102 -25c0 -14 50 -115 151 -303c103 170 154 266 154 289c0 22 -33 35 -99 39v46h278v-46z" />
    <glyph glyph-name="Thorn" unicode="&#xde;" horiz-adv-x="653" 
d="M619 402c0 -142 -106 -233 -265 -233h-88v-59c0 -49 24 -61 116 -64v-46h-341v46c72 4 107 9 107 64v519c0 48 -24 63 -111 68v46h340v-46c-107 -6 -111 -15 -111 -103h132c128 0 221 -81 221 -192zM485 377c0 109 -49 164 -147 164h-72v-319h52c106 0 167 56 167 155z
" />
    <glyph glyph-name="germandbls" unicode="&#xdf;" horiz-adv-x="645" 
d="M622 163c0 -102 -75 -179 -175 -179c-98 0 -158 46 -158 120c0 41 29 72 66 72c29 0 54 -24 54 -53c0 -7 0 -9 -21 -55c0 -17 34 -35 66 -35c48 0 84 36 84 82c0 51 -20 79 -102 139c-71 52 -106 101 -106 147c0 53 5 61 85 141c20 24 30 53 30 88c0 64 -37 102 -100 102
c-89 0 -121 -63 -125 -232v-500h-183v44c73 4 79 22 79 60v350l-93 9v47c56 0 87 13 94 39c0 137 100 233 241 233c106 0 181 -58 181 -140c0 -54 -19 -96 -56 -126c-23 -14 -45 -28 -68 -43c0 -55 12 -76 94 -140c92 -70 113 -101 113 -170z" />
    <glyph glyph-name="agrave" unicode="&#xe0;" horiz-adv-x="552" 
d="M384 626l-18 -30c-233 93 -243 98 -243 135c0 30 22 51 53 51c28 0 34 -5 208 -156zM562 143c-4 -102 -45 -153 -124 -153c-49 0 -81 26 -98 77h-4c-42 -53 -97 -79 -165 -79c-79 0 -130 51 -130 131c0 77 37 130 111 159c47 16 109 40 187 73v48c0 63 -37 105 -93 105
c-31 0 -55 -9 -72 -27c10 -55 10 -56 10 -63c0 -35 -22 -53 -66 -53c-35 0 -53 22 -53 67c0 63 93 124 188 124c140 0 192 -44 192 -174c0 -45 0 -62 -6 -270c0 -31 15 -47 44 -47c22 0 34 27 35 82h44zM340 294c-136 -42 -187 -84 -187 -157c0 -53 24 -80 73 -80
c46 0 70 14 109 62z" />
    <glyph glyph-name="aacute" unicode="&#xe1;" horiz-adv-x="552" 
d="M400 731c0 -25 -18 -44 -55 -59c-28 -10 -90 -36 -188 -76l-18 30c182 156 183 156 208 156c31 0 53 -21 53 -51zM562 143c-4 -102 -45 -153 -124 -153c-49 0 -81 26 -98 77h-4c-42 -53 -97 -79 -165 -79c-79 0 -130 51 -130 131c0 77 37 130 111 159
c47 16 109 40 187 73v48c0 63 -37 105 -93 105c-31 0 -55 -9 -72 -27c10 -55 10 -56 10 -63c0 -35 -22 -53 -66 -53c-35 0 -53 22 -53 67c0 63 93 124 188 124c140 0 192 -44 192 -174c0 -45 0 -62 -6 -270c0 -31 15 -47 44 -47c22 0 34 27 35 82h44zM340 294
c-136 -42 -187 -84 -187 -157c0 -53 24 -80 73 -80c46 0 70 14 109 62z" />
    <glyph glyph-name="acircumflex" unicode="&#xe2;" horiz-adv-x="552" 
d="M415 605l-34 -15l-127 104l-125 -104l-34 15c123 177 125 177 161 177c33 0 34 0 159 -177zM562 143c-4 -102 -45 -153 -124 -153c-49 0 -81 26 -98 77h-4c-42 -53 -97 -79 -165 -79c-79 0 -130 51 -130 131c0 77 37 130 111 159c47 16 109 40 187 73v48
c0 63 -37 105 -93 105c-31 0 -55 -9 -72 -27c10 -55 10 -56 10 -63c0 -35 -22 -53 -66 -53c-35 0 -53 22 -53 67c0 63 93 124 188 124c140 0 192 -44 192 -174c0 -45 0 -62 -6 -270c0 -31 15 -47 44 -47c22 0 34 27 35 82h44zM340 294c-136 -42 -187 -84 -187 -157
c0 -53 24 -80 73 -80c46 0 70 14 109 62z" />
    <glyph glyph-name="atilde" unicode="&#xe3;" horiz-adv-x="552" 
d="M447 766c-20 -74 -76 -129 -132 -129c-24 0 -50 7 -79 22s-51 23 -67 23c-28 0 -29 -1 -64 -63l-40 17c25 74 76 124 128 124c26 0 54 -8 83 -24c24 -13 44 -20 59 -20c42 0 43 2 72 61zM562 143c-4 -102 -45 -153 -124 -153c-49 0 -81 26 -98 77h-4
c-42 -53 -97 -79 -165 -79c-79 0 -130 51 -130 131c0 77 37 130 111 159c47 16 109 40 187 73v48c0 63 -37 105 -93 105c-31 0 -55 -9 -72 -27c10 -55 10 -56 10 -63c0 -35 -22 -53 -66 -53c-35 0 -53 22 -53 67c0 63 93 124 188 124c140 0 192 -44 192 -174
c0 -45 0 -62 -6 -270c0 -31 15 -47 44 -47c22 0 34 27 35 82h44zM340 294c-136 -42 -187 -84 -187 -157c0 -53 24 -80 73 -80c46 0 70 14 109 62z" />
    <glyph glyph-name="adieresis" unicode="&#xe4;" horiz-adv-x="552" 
d="M424 703c0 -39 -28 -68 -63 -68s-62 29 -62 64c0 36 28 66 62 66c35 0 63 -28 63 -62zM216 703c0 -39 -27 -68 -64 -68c-33 0 -61 29 -61 64c0 36 28 66 61 66c35 0 64 -27 64 -62zM562 143c-4 -102 -45 -153 -124 -153c-49 0 -81 26 -98 77h-4c-42 -53 -97 -79 -165 -79
c-79 0 -130 51 -130 131c0 77 37 130 111 159c47 16 109 40 187 73v48c0 63 -37 105 -93 105c-31 0 -55 -9 -72 -27c10 -55 10 -56 10 -63c0 -35 -22 -53 -66 -53c-35 0 -53 22 -53 67c0 63 93 124 188 124c140 0 192 -44 192 -174c0 -45 0 -62 -6 -270c0 -31 15 -47 44 -47
c22 0 34 27 35 82h44zM340 294c-136 -42 -187 -84 -187 -157c0 -53 24 -80 73 -80c46 0 70 14 109 62z" />
    <glyph glyph-name="aring" unicode="&#xe5;" horiz-adv-x="552" 
d="M384 686c0 -62 -51 -104 -125 -104c-76 0 -125 41 -125 104c0 60 53 104 125 104c74 0 125 -42 125 -104zM562 143c-4 -102 -45 -153 -124 -153c-49 0 -81 26 -98 77h-4c-42 -53 -97 -79 -165 -79c-79 0 -130 51 -130 131c0 77 37 130 111 159c47 16 109 40 187 73v48
c0 63 -37 105 -93 105c-31 0 -55 -9 -72 -27c10 -55 10 -56 10 -63c0 -35 -22 -53 -66 -53c-35 0 -53 22 -53 67c0 63 93 124 188 124c140 0 192 -44 192 -174c0 -45 0 -62 -6 -270c0 -31 15 -47 44 -47c22 0 34 27 35 82h44zM318 686c0 46 -20 69 -59 69s-59 -23 -59 -69
s20 -69 59 -69s59 23 59 69zM340 294c-136 -42 -187 -84 -187 -157c0 -53 24 -80 73 -80c46 0 70 14 109 62z" />
    <glyph glyph-name="ae" unicode="&#xe6;" horiz-adv-x="1050" 
d="M942 50h-112v-64c0 -29 12 -35 71 -38v-41h-234v41c50 0 73 2 73 33v69h-223v52l263 279h51v-276h111v-55zM852 676l-608 -751l-47 35l609 751zM387 252h-280v43c76 4 95 12 95 38v289h-35c-19 0 -51 16 -96 47l14 33c32 -15 60 -22 84 -22c34 0 73 11 116 34h26
c-9 -49 -14 -90 -14 -123v-253c0 -27 24 -39 90 -43v-43zM739 105v167l-155 -167h155z" />
    <glyph glyph-name="ccedilla" unicode="&#xe7;" horiz-adv-x="497" 
d="M497 125c-47 -85 -129 -136 -219 -136v-27c77 0 116 -22 116 -67c0 -65 -71 -97 -212 -97v41c99 0 131 9 131 40c0 23 -8 23 -75 26v87c-72 11 -201 65 -201 280c0 162 106 280 252 280c106 0 179 -55 179 -135c0 -53 -22 -79 -65 -79s-65 20 -65 60c0 23 0 24 19 71
c-4 21 -27 32 -70 32c-84 0 -135 -85 -135 -224c0 -133 62 -219 157 -219c65 0 105 28 148 102z" />
    <glyph glyph-name="egrave" unicode="&#xe8;" horiz-adv-x="522" 
d="M405 626l-18 -30c-233 93 -243 98 -243 135c0 30 22 51 53 51c28 0 34 -5 208 -156zM501 127c-42 -86 -123 -139 -215 -139c-157 0 -249 106 -249 285c0 160 101 279 238 279s214 -83 214 -230v-35h-339c0 -152 56 -228 167 -228c69 0 103 32 144 101zM377 339
c0 109 -34 163 -103 163c-70 0 -120 -66 -124 -165z" />
    <glyph glyph-name="eacute" unicode="&#xe9;" horiz-adv-x="522" 
d="M421 731c0 -25 -18 -44 -55 -59c-28 -10 -90 -36 -188 -76l-18 30c182 156 183 156 208 156c31 0 53 -21 53 -51zM501 127c-42 -86 -123 -139 -215 -139c-157 0 -249 106 -249 285c0 160 101 279 238 279s214 -83 214 -230v-35h-339c0 -152 56 -228 167 -228
c69 0 103 32 144 101zM377 339c0 109 -34 163 -103 163c-70 0 -120 -66 -124 -165z" />
    <glyph glyph-name="ecircumflex" unicode="&#xea;" horiz-adv-x="522" 
d="M434 605l-34 -15l-127 104l-125 -104l-34 15c123 177 125 177 161 177c33 0 34 0 159 -177zM501 127c-42 -86 -123 -139 -215 -139c-157 0 -249 106 -249 285c0 160 101 279 238 279s214 -83 214 -230v-35h-339c0 -152 56 -228 167 -228c69 0 103 32 144 101zM377 339
c0 109 -34 163 -103 163c-70 0 -120 -66 -124 -165z" />
    <glyph glyph-name="edieresis" unicode="&#xeb;" horiz-adv-x="522" 
d="M443 703c0 -39 -28 -68 -63 -68s-62 29 -62 64c0 36 28 66 62 66c35 0 63 -28 63 -62zM235 703c0 -39 -27 -68 -64 -68c-33 0 -61 29 -61 64c0 36 28 66 61 66c35 0 64 -27 64 -62zM501 127c-42 -86 -123 -139 -215 -139c-157 0 -249 106 -249 285c0 160 101 279 238 279
s214 -83 214 -230v-35h-339c0 -152 56 -228 167 -228c69 0 103 32 144 101zM377 339c0 109 -34 163 -103 163c-70 0 -120 -66 -124 -165z" />
    <glyph glyph-name="igrave" unicode="&#xec;" horiz-adv-x="327" 
d="M266 626l-18 -30c-233 93 -243 98 -243 135c0 30 22 51 53 51c28 0 34 -5 208 -156zM300 0h-261v44c60 4 78 14 78 57v313c0 46 -32 71 -94 74v43l192 13l7 -8v-428c0 -38 29 -62 78 -64v-44z" />
    <glyph glyph-name="iacute" unicode="&#xed;" horiz-adv-x="327" 
d="M282 731c0 -25 -18 -44 -55 -59c-28 -10 -90 -36 -188 -76l-18 30c182 156 183 156 208 156c31 0 53 -21 53 -51zM300 0h-261v44c60 4 78 14 78 57v313c0 46 -32 71 -94 74v43l192 13l7 -8v-428c0 -38 29 -62 78 -64v-44z" />
    <glyph glyph-name="icircumflex" unicode="&#xee;" horiz-adv-x="327" 
d="M293 604l-35 -14l-119 110l-117 -110l-35 14l100 154c11 16 29 24 54 24s42 -7 51 -22zM300 0h-261v44c60 4 78 14 78 57v313c0 46 -32 71 -94 74v43l192 13l7 -8v-428c0 -38 29 -62 78 -64v-44z" />
    <glyph glyph-name="idieresis" unicode="&#xef;" horiz-adv-x="327" 
d="M310 701c0 -39 -28 -68 -63 -68s-62 29 -62 64c0 36 28 66 62 66c35 0 63 -28 63 -62zM121 701c0 -39 -27 -68 -64 -68c-33 0 -61 29 -61 64c0 36 28 66 61 66c35 0 64 -27 64 -62zM300 0h-261v44c60 4 78 14 78 57v313c0 46 -32 71 -94 74v43l192 13l7 -8v-428
c0 -38 29 -62 78 -64v-44z" />
    <glyph glyph-name="eth" unicode="&#xf0;" horiz-adv-x="577" 
d="M539 329c0 -215 -96 -344 -257 -344c-146 0 -246 110 -246 269c0 157 96 260 241 260c63 0 109 -24 140 -73l3 1c-10 69 -44 137 -103 204l-129 -79l-29 44l126 74c-17 19 -47 39 -88 62l43 33c45 -21 80 -43 105 -66l108 66l25 -45l-95 -56c104 -97 156 -213 156 -350z
M422 267c0 121 -50 194 -133 194c-91 0 -137 -67 -137 -201c0 -149 45 -224 136 -224c86 0 134 83 134 231z" />
    <glyph glyph-name="ntilde" unicode="&#xf1;" horiz-adv-x="649" 
d="M513 766c-20 -74 -76 -129 -132 -129c-24 0 -50 7 -79 22s-51 23 -67 23c-28 0 -29 -1 -64 -63l-40 17c25 74 76 124 128 124c26 0 54 -8 83 -24c24 -13 44 -20 59 -20c42 0 43 2 72 61zM626 0h-264v44c74 4 81 19 81 57v259c0 73 -34 119 -88 119
c-58 0 -113 -35 -135 -85v-288c0 -37 29 -59 82 -62v-44h-265v44c69 4 78 19 78 57v314c0 46 -28 71 -83 74v43l181 12l7 -7v-79h2c73 72 102 94 176 94c97 0 151 -64 151 -178v-269c0 -39 30 -59 77 -61v-44z" />
    <glyph glyph-name="ograve" unicode="&#xf2;" horiz-adv-x="581" 
d="M419 626l-18 -30c-233 93 -243 98 -243 135c0 30 22 51 53 51c28 0 34 -5 208 -156zM545 276c0 -176 -102 -290 -259 -290c-145 0 -250 118 -250 282c0 169 104 285 257 285c151 0 252 -112 252 -277zM429 274c0 153 -46 229 -137 229s-140 -79 -140 -226
c0 -154 50 -241 140 -241c55 0 137 39 137 238z" />
    <glyph glyph-name="oacute" unicode="&#xf3;" horiz-adv-x="581" 
d="M433 731c0 -25 -18 -44 -55 -59c-28 -10 -90 -36 -188 -76l-18 30c182 156 183 156 208 156c31 0 53 -21 53 -51zM545 276c0 -176 -102 -290 -259 -290c-145 0 -250 118 -250 282c0 169 104 285 257 285c151 0 252 -112 252 -277zM429 274c0 153 -46 229 -137 229
s-140 -79 -140 -226c0 -154 50 -241 140 -241c55 0 137 39 137 238z" />
    <glyph glyph-name="ocircumflex" unicode="&#xf4;" horiz-adv-x="581" 
d="M451 605l-34 -15l-127 104l-125 -104l-34 15c123 177 125 177 161 177c33 0 34 0 159 -177zM545 276c0 -176 -102 -290 -259 -290c-145 0 -250 118 -250 282c0 169 104 285 257 285c151 0 252 -112 252 -277zM429 274c0 153 -46 229 -137 229s-140 -79 -140 -226
c0 -154 50 -241 140 -241c55 0 137 39 137 238z" />
    <glyph glyph-name="otilde" unicode="&#xf5;" horiz-adv-x="581" 
d="M483 766c-20 -74 -76 -129 -132 -129c-24 0 -50 7 -79 22s-51 23 -67 23c-28 0 -29 -1 -64 -63l-40 17c25 74 76 124 128 124c26 0 54 -8 83 -24c24 -13 44 -20 59 -20c42 0 43 2 72 61zM545 276c0 -176 -102 -290 -259 -290c-145 0 -250 118 -250 282
c0 169 104 285 257 285c151 0 252 -112 252 -277zM429 274c0 153 -46 229 -137 229s-140 -79 -140 -226c0 -154 50 -241 140 -241c55 0 137 39 137 238z" />
    <glyph glyph-name="odieresis" unicode="&#xf6;" horiz-adv-x="581" 
d="M458 703c0 -39 -28 -68 -63 -68s-62 29 -62 64c0 36 28 66 62 66c35 0 63 -28 63 -62zM250 703c0 -39 -27 -68 -64 -68c-33 0 -61 29 -61 64c0 36 28 66 61 66c35 0 64 -27 64 -62zM545 276c0 -176 -102 -290 -259 -290c-145 0 -250 118 -250 282c0 169 104 285 257 285
c151 0 252 -112 252 -277zM429 274c0 153 -46 229 -137 229s-140 -79 -140 -226c0 -154 50 -241 140 -241c55 0 137 39 137 238z" />
    <glyph glyph-name="divide" unicode="&#xf7;" horiz-adv-x="666" 
d="M407 497c0 -42 -33 -75 -74 -75s-74 34 -74 75s33 75 74 75s74 -33 74 -75zM597 251h-528v72h528v-72zM407 77c0 -42 -33 -75 -74 -75s-74 34 -74 75s33 75 74 75s74 -33 74 -75z" />
    <glyph glyph-name="ugrave" unicode="&#xf9;" horiz-adv-x="631" 
d="M435 626l-18 -30c-233 93 -243 98 -243 135c0 30 22 51 53 51c28 0 34 -5 208 -156zM607 12l-178 -13l-8 9v70h-3c-68 -71 -101 -90 -173 -90c-97 0 -145 61 -145 184v244c0 44 -29 69 -84 72v43l183 13l7 -8v-363c0 -73 32 -117 84 -117c53 0 97 29 130 86v279
c0 50 -25 64 -100 67v43l198 13l7 -8v-416c0 -42 24 -62 82 -65v-43z" />
    <glyph glyph-name="uacute" unicode="&#xfa;" horiz-adv-x="631" 
d="M451 731c0 -25 -18 -44 -55 -59c-28 -10 -90 -36 -188 -76l-18 30c182 156 183 156 208 156c31 0 53 -21 53 -51zM607 12l-178 -13l-8 9v70h-3c-68 -71 -101 -90 -173 -90c-97 0 -145 61 -145 184v244c0 44 -29 69 -84 72v43l183 13l7 -8v-363c0 -73 32 -117 84 -117
c53 0 97 29 130 86v279c0 50 -25 64 -100 67v43l198 13l7 -8v-416c0 -42 24 -62 82 -65v-43z" />
    <glyph glyph-name="ucircumflex" unicode="&#xfb;" horiz-adv-x="631" 
d="M465 605l-34 -15l-127 104l-125 -104l-34 15c123 177 125 177 161 177c33 0 34 0 159 -177zM607 12l-178 -13l-8 9v70h-3c-68 -71 -101 -90 -173 -90c-97 0 -145 61 -145 184v244c0 44 -29 69 -84 72v43l183 13l7 -8v-363c0 -73 32 -117 84 -117c53 0 97 29 130 86v279
c0 50 -25 64 -100 67v43l198 13l7 -8v-416c0 -42 24 -62 82 -65v-43z" />
    <glyph glyph-name="udieresis" unicode="&#xfc;" horiz-adv-x="631" 
d="M472 703c0 -39 -28 -68 -63 -68s-62 29 -62 64c0 36 28 66 62 66c35 0 63 -28 63 -62zM264 703c0 -39 -27 -68 -64 -68c-33 0 -61 29 -61 64c0 36 28 66 61 66c35 0 64 -27 64 -62zM607 12l-178 -13l-8 9v70h-3c-68 -71 -101 -90 -173 -90c-97 0 -145 61 -145 184v244
c0 44 -29 69 -84 72v43l183 13l7 -8v-363c0 -73 32 -117 84 -117c53 0 97 29 130 86v279c0 50 -25 64 -100 67v43l198 13l7 -8v-416c0 -42 24 -62 82 -65v-43z" />
    <glyph glyph-name="yacute" unicode="&#xfd;" horiz-adv-x="528" 
d="M429 731c0 -25 -18 -44 -55 -59c-28 -10 -90 -36 -188 -76l-18 30c182 156 183 156 208 156c31 0 53 -21 53 -51zM546 496c-31 -7 -73 -37 -83 -64c-207 -545 -262 -635 -376 -635c-51 0 -83 30 -83 77c0 35 32 68 66 68c47 0 59 -20 59 -80c33 7 81 71 112 150
c-31 80 -88 222 -170 427c-13 31 -40 49 -81 54v45h240v-47c-36 -1 -54 -9 -54 -24c6 -23 33 -95 121 -317c1 6 36 97 104 272c5 12 7 23 7 32c0 17 -31 34 -66 41v43h204v-42z" />
    <glyph glyph-name="thorn" unicode="&#xfe;" horiz-adv-x="608" 
d="M571 270c0 -154 -107 -272 -247 -272c-50 0 -91 12 -124 37h-4v-127c0 -45 32 -63 109 -67v-44h-302v44c71 4 89 15 89 61v743c0 55 -24 73 -99 80v42l196 13l7 -9v-294l3 -1c47 51 95 76 145 76c134 0 227 -116 227 -282zM454 272c0 133 -55 212 -147 212
c-39 0 -76 -21 -111 -62v-288c20 -57 60 -86 119 -86c87 0 139 84 139 224z" />
    <glyph glyph-name="ydieresis" unicode="&#xff;" horiz-adv-x="528" 
d="M457 703c0 -39 -28 -68 -63 -68s-62 29 -62 64c0 36 28 66 62 66c35 0 63 -28 63 -62zM249 703c0 -39 -27 -68 -64 -68c-33 0 -61 29 -61 64c0 36 28 66 61 66c35 0 64 -27 64 -62zM546 496c-31 -7 -73 -37 -83 -64c-207 -545 -262 -635 -376 -635c-51 0 -83 30 -83 77
c0 35 32 68 66 68c47 0 59 -20 59 -80c33 7 81 71 112 150c-31 80 -88 222 -170 427c-13 31 -40 49 -81 54v45h240v-47c-36 -1 -54 -9 -54 -24c6 -23 33 -95 121 -317c1 6 36 97 104 272c5 12 7 23 7 32c0 17 -31 34 -66 41v43h204v-42z" />
  </font>
</defs>
</svg>
